<svg width="50" height="50" viewBox="0 0 50 50" fill="none" xmlns="http://www.w3.org/2000/svg">
<g clip-path="url(#clip0_117_254)">
<circle cx="24.9999" cy="25.4047" r="23.2143" fill="white"/>
<path d="M0.5 24.9579C0.5 11.7107 11.4898 0.904297 25 0.904297C38.5102 0.904297 49.5 11.7107 49.5 24.9579C49.5 38.205 38.5102 49.0114 25 49.0114C11.4898 49.0114 0.5 38.205 0.5 24.9579ZM26.6111 37.5075V26.5491H37.7778C38.6565 26.5491 39.3888 25.8428 39.3888 24.958C39.3888 24.0732 38.6565 23.3668 37.7778 23.3668H26.6111V12.4085C26.6111 11.5237 25.8788 10.8173 25.0001 10.8173C24.1214 10.8173 23.3891 11.5236 23.3891 12.4085V23.3668H12.2224C11.3437 23.3668 10.6114 24.0732 10.6114 24.958C10.6114 25.8427 11.3437 26.5491 12.2224 26.5491H23.3891V37.5075C23.3891 38.3923 24.1214 39.0986 25.0001 39.0986C25.8788 39.0986 26.6111 38.3923 26.6111 37.5075Z" fill="white" stroke="#6D6D6D"/>
</g>
<defs>
<clipPath id="clip0_117_254">
<rect width="50" height="50" fill="white"/>
</clipPath>
</defs>
</svg>
