<svg width="50" height="50" viewBox="0 0 50 50" fill="none" xmlns="http://www.w3.org/2000/svg">
<g clip-path="url(#clip0_117_257)">
<path d="M25 0C11.2222 0 0 11.2222 0 25C0 38.7778 11.2222 50 25 50C38.7778 50 50 38.7778 50 25C50 11.2222 38.7778 0 25 0ZM37.7778 26.1111H26.1111V37.7778C26.1111 38.3889 25.6112 38.8888 25.0001 38.8888C24.389 38.8888 23.8891 38.3889 23.8891 37.7778V26.1111H12.2224C11.6113 26.1111 11.1114 25.6112 11.1114 25.0001C11.1114 24.389 11.6113 23.8891 12.2224 23.8891H23.8891V12.2224C23.8891 11.6113 24.389 11.1114 25.0001 11.1114C25.6112 11.1114 26.1111 11.6113 26.1111 12.2224V23.8891H37.7778C38.3889 23.8891 38.8888 24.389 38.8888 25.0001C38.8888 25.6112 38.3889 26.1111 37.7778 26.1111Z" fill="#6D6D6D"/>
</g>
<defs>
<clipPath id="clip0_117_257">
<rect width="50" height="50" fill="white"/>
</clipPath>
</defs>
</svg>
