<svg width="81" height="80" viewBox="0 0 81 80" fill="none" xmlns="http://www.w3.org/2000/svg">
<circle cx="40.5795" cy="36.4121" r="23.5966" fill="white"/>
<g filter="url(#filter0_d_1_370)">
<path d="M40.5797 11C26.575 11 15.168 22.2034 15.168 35.958C15.168 49.7126 26.575 60.916 40.5797 60.916C54.5844 60.916 65.9915 49.7126 65.9915 35.958C65.9915 22.2034 54.5844 11 40.5797 11ZM53.568 37.0672H41.7091V48.7143C41.7091 49.3244 41.201 49.8234 40.5798 49.8234C39.9587 49.8234 39.4505 49.3244 39.4505 48.7143V37.0672H27.5917C26.9705 37.0672 26.4624 36.5682 26.4624 35.9581C26.4624 35.348 26.9705 34.8489 27.5917 34.8489H39.4505V23.2019C39.4505 22.5918 39.9587 22.0927 40.5798 22.0927C41.201 22.0927 41.7091 22.5918 41.7091 23.2019V34.8489H53.568C54.1892 34.8489 54.6973 35.348 54.6973 35.9581C54.6973 36.5682 54.1891 37.0672 53.568 37.0672Z" fill="white"/>
<path d="M15.668 35.958C15.668 22.488 26.8426 11.5 40.5797 11.5C54.3168 11.5 65.4915 22.488 65.4915 35.958C65.4915 49.428 54.3168 60.416 40.5797 60.416C26.8426 60.416 15.668 49.428 15.668 35.958ZM42.2091 48.7143V37.5672H53.568C54.4567 37.5672 55.1973 36.8528 55.1973 35.9581C55.1973 35.0634 54.4568 34.3489 53.568 34.3489H42.2091V23.2019C42.2091 22.3072 41.4686 21.5927 40.5798 21.5927C39.6911 21.5927 38.9505 22.3072 38.9505 23.2019V34.3489H27.5917C26.7029 34.3489 25.9624 35.0634 25.9624 35.9581C25.9624 36.8527 26.7029 37.5672 27.5917 37.5672H38.9505V48.7143C38.9505 49.609 39.6911 50.3234 40.5798 50.3234C41.4686 50.3234 42.2091 49.609 42.2091 48.7143Z" stroke="#6EB667"/>
</g>
<defs>
<filter id="filter0_d_1_370" x="0.167969" y="0" width="80.8235" height="79.916" filterUnits="userSpaceOnUse" color-interpolation-filters="sRGB">
<feFlood flood-opacity="0" result="BackgroundImageFix"/>
<feColorMatrix in="SourceAlpha" type="matrix" values="0 0 0 0 0 0 0 0 0 0 0 0 0 0 0 0 0 0 127 0" result="hardAlpha"/>
<feOffset dy="4"/>
<feGaussianBlur stdDeviation="7.5"/>
<feComposite in2="hardAlpha" operator="out"/>
<feColorMatrix type="matrix" values="0 0 0 0 0 0 0 0 0 0 0 0 0 0 0 0 0 0 0.2 0"/>
<feBlend mode="normal" in2="BackgroundImageFix" result="effect1_dropShadow_1_370"/>
<feBlend mode="normal" in="SourceGraphic" in2="effect1_dropShadow_1_370" result="shape"/>
</filter>
</defs>
</svg>
