<svg width="50" height="50" viewBox="0 0 50 50" fill="none" xmlns="http://www.w3.org/2000/svg">
<path d="M4.70798 34.5667H1.49564C0.669582 34.5667 0 33.8971 0 33.071V14.5113C0 13.6852 0.669631 13.0156 1.49564 13.0156H4.70798C5.53404 13.0156 6.20362 13.6853 6.20362 14.5113V33.071C6.20362 33.8971 5.53399 34.5667 4.70798 34.5667Z" fill="#6D6D6D"/>
<path d="M45.292 34.5423H48.5044C49.3304 34.5423 50 33.8726 50 33.0466V14.4869C50 13.6608 49.3304 12.9912 48.5044 12.9912H45.292C44.466 12.9912 43.7964 13.6608 43.7964 14.4869V33.0466C43.7964 33.8727 44.466 34.5423 45.292 34.5423Z" fill="#6D6D6D"/>
<path d="M33.3098 15.579L30.9968 13.5319C29.0882 11.3139 25.6119 11.0709 23.4119 13L16.4443 19.1103C15.2573 20.1507 15.1467 22.0452 16.2112 23.2162C17.2578 24.3673 19.0679 24.4768 20.2488 23.4585L26.3193 18.1648C26.7001 17.8329 27.2716 17.8588 27.6211 18.2236L40.6738 31.8486H41.4896L41.4892 15.5784L33.3098 15.579Z" fill="#6D6D6D"/>
<path d="M35.9476 31.0255L26.2741 20.8963L21.6974 25.0552C19.6702 26.9085 16.5239 26.765 14.6742 24.7351C12.8285 22.7099 12.9716 19.5723 14.9939 17.7233L19.9617 13.1813C17.1748 11.7257 13.6454 12.5639 11.8522 15.2794H8.61816V32.5655H11.455L16.0523 37.2654C16.8105 38.1064 18.0467 38.317 19.0411 37.7752C20.3624 37.0552 20.7119 35.3416 19.8336 34.1661L22.2324 36.8465C22.9025 37.5955 23.9765 37.8324 24.8999 37.4352L24.9591 37.4096C26.4865 36.7522 26.9241 34.8044 25.8294 33.5644C24.2345 31.7577 22.7678 30.035 22.7678 30.035L27.3754 35.2302C28.1302 36.0739 29.361 36.2987 30.3653 35.7762L30.4255 35.745C31.9361 34.9593 32.0731 32.8593 30.9277 31.6135C28.7291 29.2226 26.3444 26.4583 26.3444 26.4583C26.3444 26.4583 30.55 30.9733 32.7473 33.3198C33.4353 34.0543 34.5047 34.2893 35.4373 33.9112L35.5006 33.8857C36.7444 33.1107 36.488 31.8855 35.9478 31.0256L35.9476 31.0255Z" fill="#6D6D6D"/>
</svg>
