<svg width="50" height="50" viewBox="0 0 50 50" fill="none" xmlns="http://www.w3.org/2000/svg">
<path fill-rule="evenodd" clip-rule="evenodd" d="M21.6565 5.9696C15.0248 7.78518 10.1248 14.1898 10.1248 21.8171V32.7253C10.1248 33.7304 9.35734 34.5452 8.41823 34.5452C6.53004 34.5452 5 36.1775 5 38.1812V40.9111C5 41.4121 5.37954 41.8179 5.85621 41.8179H45.1438C45.6169 41.8179 46 41.4057 46 40.9111V38.1812C46 36.173 44.4628 34.5452 42.5818 34.5452C41.6392 34.5452 40.8752 33.7367 40.8752 32.7253V21.8171C40.8752 14.1923 35.9764 7.78566 29.3435 5.9696V4.09137C29.3435 1.82629 27.6228 0 25.4999 0C23.3811 0 21.6562 1.83197 21.6562 4.09137L21.6565 5.9696ZM19.521 43.6366H31.4792C31.4792 47.1508 28.8021 50 25.5001 50C22.1981 50 19.521 47.1508 19.521 43.6366Z" fill="#6D6D6D"/>
</svg>
