<svg width="50" height="50" viewBox="0 0 50 50" fill="none" xmlns="http://www.w3.org/2000/svg">
<g clip-path="url(#clip0_117_244)">
<path fill-rule="evenodd" clip-rule="evenodd" d="M5.56408 2.00037H25.608V6.62929C25.608 8.1157 26.8179 9.32562 28.3043 9.32562H32.9332V21.7045C31.7222 22.6398 31.2955 24.3057 31.9186 25.711C30.429 28.3339 28.0691 30.7383 25.7038 32.6263L25.6029 32.4508L24.7927 32.9183H9.10889C8.7145 32.9183 8.39464 33.2382 8.39464 33.6326C8.39464 34.027 8.7145 34.3468 9.10889 34.3468H22.3177L21.1392 35.0271C19.8619 35.7645 18.9888 36.9436 18.6006 38.2633H5.56316C4.86519 38.2633 4.29564 37.6938 4.29564 36.9958V3.2679C4.29564 2.56956 4.86515 2 5.56316 2L5.56408 2.00037ZM34.0195 22.6926C33.1059 23.2198 32.7904 24.399 33.3176 25.3126L41.1853 38.9401C41.7125 39.8538 42.8917 40.1693 43.8053 39.6421C44.7189 39.1149 45.0351 37.9357 44.5072 37.0221L36.6395 23.3946C36.1124 22.481 34.9331 22.1651 34.0195 22.6926ZM25.0798 34.4018L21.8541 36.2645C19.8944 37.3959 19.2163 39.9258 20.3478 41.8855C21.4792 43.8453 24.0091 44.5233 25.9688 43.3919L29.1945 41.5292L25.0798 34.4018ZM40.8062 27.7517C41.6366 27.6819 42.4724 28.085 42.9168 28.8549C43.3611 29.6249 43.2924 30.5501 42.8169 31.2347L40.8062 27.7517ZM26.4275 33.8764L30.3237 40.6246C33.4947 39.3553 36.5938 38.6519 39.3061 38.5405L32.7234 27.1397C31.271 29.4327 29.1116 31.7647 26.4275 33.8763V33.8764ZM30.0535 42.6841L33.8683 47.8189C34.1212 48.1593 34.0818 48.6304 33.7673 48.9156L32.7879 49.8046C32.6128 49.9634 32.4025 50.0336 32.167 50.0127C31.9318 49.9917 31.7346 49.8857 31.5938 49.6964L27.469 44.1763L30.0535 42.6841ZM32.8855 44.0996C33.1286 43.8314 33.1131 43.3954 32.8877 43.0918L31.778 41.5978C31.5811 41.6698 31.3858 41.7437 31.1918 41.8193L32.8855 44.0996ZM45.9378 27.9322C45.5973 28.1279 45.1624 28.0107 44.9667 27.6702C44.7709 27.3297 44.8881 26.8948 45.2286 26.6991L47.6106 25.3237C47.951 25.128 48.386 25.2452 48.5817 25.5857C48.7774 25.9262 48.6602 26.3611 48.3197 26.5568L45.9378 27.9322ZM46.0912 32.5505C45.6968 32.5505 45.3769 32.2307 45.3769 31.8363C45.3769 31.4419 45.6968 31.122 46.0912 31.122H48.9923C49.3867 31.122 49.7066 31.4419 49.7066 31.8363C49.7066 32.2307 49.3867 32.5505 48.9923 32.5505H46.0912ZM42.5391 24.9702C42.3433 25.3107 41.9084 25.4283 41.568 25.2322C41.2275 25.0364 41.1099 24.6015 41.306 24.261L42.7569 21.7485C42.9527 21.408 43.3876 21.2904 43.728 21.4865C44.0685 21.6823 44.1861 22.1172 43.9907 22.4576L42.5391 24.9702ZM1.26753 6.29629C0.569554 6.29629 0 6.86581 0 7.56382V41.2917C0 41.9897 0.569517 42.5592 1.26753 42.5592H19.0874C18.5761 41.6565 18.3478 40.6654 18.3746 39.6917L5.56407 39.6921C4.07692 39.6921 2.86775 38.4822 2.86775 36.9958L2.86811 6.29592L1.26753 6.29629ZM28.3048 7.89562H32.8241C32.7626 7.76102 32.6754 7.63727 32.5625 7.52438L27.4082 2.37007C27.2953 2.25717 27.1715 2.16997 27.037 2.10847V6.62772C27.0373 7.32678 27.6068 7.89562 28.3048 7.89562ZM9.10945 12.6508H26.7237C27.1181 12.6508 27.4379 12.3309 27.4379 11.9365C27.4379 11.5422 27.1181 11.2223 26.7237 11.2223L9.10945 11.2219C8.71506 11.2219 8.39521 11.5418 8.39521 11.9362C8.39521 12.3309 8.71506 12.6508 9.10945 12.6508V12.6508ZM9.10945 9.03467H19.4987C19.8931 9.03467 20.2129 8.71481 20.2129 8.32042C20.2129 7.92603 19.8931 7.60617 19.4987 7.60617H9.10945C8.71506 7.60617 8.39521 7.92603 8.39521 8.32042C8.39521 8.71481 8.71506 9.03467 9.10945 9.03467ZM9.10945 30.7301H26.7237C27.1181 30.7301 27.4379 30.4103 27.4379 30.0159C27.4379 29.6215 27.1181 29.3016 26.7237 29.3016L9.10945 29.3013C8.71506 29.3013 8.39521 29.6211 8.39521 30.0155C8.39521 30.4103 8.71506 30.7301 9.10945 30.7301ZM9.10945 27.114H26.7237C27.1181 27.114 27.4379 26.7941 27.4379 26.3997C27.4379 26.0053 27.1181 25.6855 26.7237 25.6855H9.10945C8.71506 25.6855 8.39521 26.0053 8.39521 26.3997C8.39521 26.7941 8.71506 27.114 9.10945 27.114ZM9.10945 23.4982H26.7237C27.1181 23.4982 27.4379 23.1784 27.4379 22.784C27.4379 22.3896 27.1181 22.0697 26.7237 22.0697H9.10945C8.71506 22.0697 8.39521 22.3896 8.39521 22.784C8.39521 23.1784 8.71506 23.4982 9.10945 23.4982ZM9.10945 19.8825H26.7237C27.1181 19.8825 27.4379 19.5626 27.4379 19.1682C27.4379 18.7735 27.1181 18.4536 26.7237 18.4536H9.10945C8.71506 18.4536 8.39521 18.7735 8.39521 19.1679C8.39521 19.5626 8.71506 19.8825 9.10945 19.8825ZM9.10945 16.2664H26.7237C27.1181 16.2664 27.4379 15.9465 27.4379 15.5521C27.4379 15.1577 27.1181 14.8379 26.7237 14.8379H9.10945C8.71506 14.8379 8.39521 15.1577 8.39521 15.5521C8.39521 15.9465 8.71506 16.2664 9.10945 16.2664Z" fill="#6D6D6D"/>
</g>
<defs>
<clipPath id="clip0_117_244">
<rect width="50" height="50" fill="white"/>
</clipPath>
</defs>
</svg>
