<svg width="50" height="50" viewBox="0 0 50 50" fill="none" xmlns="http://www.w3.org/2000/svg">
<g clip-path="url(#clip0_117_251)">
<path d="M6.43658 21.5912C1.7685 23.2713 -0.672236 28.3651 0.984784 32.9691C2.6418 37.573 7.76887 39.9431 12.4369 38.263C12.8025 38.1309 13.1094 37.8743 13.3025 37.5395C13.4955 37.2047 13.5619 36.8138 13.4897 36.4372L13.514 36.4284L8.52087 22.5552C8.37605 22.1528 8.07512 21.8252 7.68427 21.6444C7.29341 21.4637 6.84461 21.4445 6.43658 21.5912ZM38.0914 2.51435C37.9465 2.11212 37.6455 1.7847 37.2547 1.60404C36.8639 1.42339 36.4152 1.40429 36.0073 1.55095C35.6549 1.67779 35.3779 1.91486 35.1895 2.20449L24.4287 14.7829L12.2279 19.1741C11.8199 19.3209 11.4862 19.6216 11.3002 20.0099C11.1141 20.3982 11.0909 20.8424 11.2357 21.2447L16.4182 35.6441L16.4375 35.6372C16.6144 35.9871 16.9151 36.2599 17.283 36.4041C17.6509 36.5483 18.0606 36.5539 18.4349 36.42L29.2611 32.5235L47.0922 35.6237C47.4569 35.776 47.8782 35.8015 48.2821 35.6561C48.69 35.5091 49.0236 35.2085 49.2096 34.8202C49.3957 34.432 49.4189 33.9879 49.2743 33.5855C49.2536 33.528 49.2232 33.4772 49.1969 33.4237L49.2138 33.4176L38.1231 2.6025L38.1141 2.60576C38.1051 2.57558 38.1024 2.54504 38.0914 2.51435ZM33.0299 44.2007L32.9952 44.1716C32.983 44.1609 32.9746 44.1481 32.9619 44.1376C32.9491 44.1271 32.9353 44.1207 32.923 44.1113L25.3368 37.7776L25.3229 37.7939C25.1394 37.6706 24.9319 37.5862 24.7133 37.5461C24.4947 37.5059 24.2697 37.5108 24.0523 37.5605L24.0463 37.5438L19.9609 39.0142L19.9645 39.0242C19.7445 39.1222 19.549 39.2673 19.3921 39.4489C19.253 39.6114 19.1474 39.7992 19.0813 40.0015C19.0151 40.2038 18.9899 40.4167 19.0069 40.6279C19.0238 40.8392 19.0828 41.0447 19.1803 41.2327C19.2777 41.4207 19.4119 41.5875 19.575 41.7236C19.6333 41.772 19.6967 41.8096 19.7598 41.8481L19.7455 41.8652L28.5865 49.2477L28.5886 49.2501C28.5893 49.2508 28.5902 49.2514 28.5911 49.2518L28.6797 49.3257L28.6873 49.3167C29.0181 49.5551 29.429 49.6601 29.8374 49.6104C30.2457 49.5607 30.6213 49.36 30.8886 49.0487C30.9538 48.9724 31.008 48.8904 31.0567 48.8074L31.0795 48.8263L33.3208 46.2072L33.2997 46.1895C33.4886 45.875 33.5644 45.5073 33.5148 45.1466C33.4652 44.786 33.2932 44.4537 33.0268 44.2044L33.0299 44.2007Z" fill="#6D6D6D"/>
</g>
<defs>
<clipPath id="clip0_117_251">
<rect width="50" height="50" fill="white"/>
</clipPath>
</defs>
</svg>
