<svg width="50" height="50" viewBox="0 0 50 50" fill="none" xmlns="http://www.w3.org/2000/svg">
<path d="M45.2413 11.1802H31.895V9.49708C31.895 8.56935 31.4993 7.68026 30.7944 7.02407C30.0899 6.36832 29.1343 6 28.1381 6H21.8621C20.8658 6 19.9102 6.36833 19.2058 7.02407C18.5008 7.68023 18.1052 8.56937 18.1052 9.49708V11.1802H4.75882C3.49663 11.1802 2.28644 11.6469 1.39367 12.4775C0.501396 13.308 0 14.435 0 15.6095V27.4615C0 28.6363 0.501385 29.7628 1.39367 30.5935C2.28638 31.424 3.49663 31.8907 4.75882 31.8907H20.5649V31.485L20.5645 31.4854C20.5645 30.8415 21.1252 30.3195 21.817 30.3195H28.1834H28.183C28.5153 30.3195 28.8337 30.4423 29.0687 30.661C29.3037 30.8797 29.4355 31.1761 29.4355 31.4854V31.8912H45.2416L45.2412 31.8908C46.5034 31.8908 47.7136 31.424 48.6063 30.5935C49.4986 29.7629 50 28.6364 50 27.4615V15.6074C49.9991 14.4329 49.4977 13.3068 48.6054 12.4766C47.7127 11.6465 46.5029 11.1802 45.2412 11.1802L45.2413 11.1802ZM20.6104 11.1802L20.6108 9.49708C20.6108 8.85312 21.1711 8.33156 21.8629 8.33156H28.1389C28.4713 8.33156 28.7897 8.45433 29.0247 8.67264C29.2592 8.89136 29.3911 9.18772 29.3911 9.4971V11.1802L20.6104 11.1802ZM26.9318 32.6465V34.3508H23.0701V32.6465H26.9318ZM45.2423 34.2178C46.4224 34.2101 47.582 33.9316 48.6183 33.4068V40.27C48.6183 41.2591 48.1964 42.2079 47.4448 42.9076C46.6932 43.6069 45.6742 44 44.6112 44H5.38388C4.32129 44 3.30194 43.6069 2.55071 42.9076C1.79907 42.208 1.37674 41.2591 1.37674 40.27V33.4068C2.41357 33.9316 3.57318 34.2101 4.75274 34.2178H20.5588V35.5164C20.5588 35.8258 20.6907 36.1221 20.9257 36.3409C21.1606 36.5592 21.479 36.6823 21.811 36.6823H28.1773C28.5097 36.6823 28.8281 36.5592 29.063 36.3409C29.2976 36.1221 29.4295 35.8258 29.4295 35.5164V34.2178H45.2423Z" fill="#6D6D6D"/>
</svg>
