<svg width="13" height="12" viewBox="0 0 13 12" fill="none" xmlns="http://www.w3.org/2000/svg">
<path fill-rule="evenodd" clip-rule="evenodd" d="M7.19679 2.52499C7.19679 2.153 7.5685 1.84362 8.05401 1.78748L8.05392 3.26299C7.56853 3.2061 7.1967 2.8967 7.1967 2.52499H7.19679ZM9.23054 4.33913C9.23054 4.71084 8.85864 5.02023 8.37351 5.07684V3.60104C8.85864 3.65783 9.23054 3.96703 9.23054 4.33922V4.33913ZM7.1967 4.33913H7.19679C7.19679 4.25093 7.12518 4.17933 7.03699 4.17933C6.9487 4.17933 6.87719 4.25093 6.87719 4.33913C6.87719 4.88395 7.39211 5.33457 8.054 5.39785V5.74734H8.05391C8.05391 5.83563 8.12551 5.90714 8.21371 5.90714C8.302 5.90714 8.37351 5.83563 8.37351 5.74734V5.39785C9.0355 5.33458 9.55033 4.88395 9.55033 4.33913C9.55033 3.7943 9.03559 3.3432 8.37351 3.28012V1.78736C8.85864 1.84359 9.23054 2.15288 9.23054 2.52487V2.52497C9.22932 2.56817 9.24554 2.61007 9.27562 2.64109C9.3058 2.67211 9.34723 2.68964 9.39044 2.68964C9.43374 2.68964 9.47507 2.67211 9.50525 2.64109C9.53534 2.61007 9.55164 2.56817 9.55033 2.52497C9.55033 1.97986 9.0356 1.52933 8.37352 1.46606V1.11599C8.37352 1.0277 8.302 0.956187 8.21371 0.956187C8.12552 0.956187 8.05391 1.0277 8.05391 1.11599V1.46606C7.39202 1.52932 6.8771 1.97986 6.8771 2.52497C6.8771 3.07008 7.39202 3.52061 8.05391 3.58388V5.07683C7.56852 5.02022 7.19669 4.71083 7.19669 4.33912L7.1967 4.33913ZM8.21391 6.86446C9.12408 6.86417 9.99692 6.50239 10.6404 5.8586C11.2838 5.2148 11.6452 4.34184 11.645 3.43164C11.6448 2.52147 11.2831 1.64853 10.6394 1.00493C9.99574 0.361416 9.12278 -9.59554e-05 8.21273 1.91047e-08C7.30246 1.91047e-08 6.42952 0.36168 5.78602 1.00528C5.14241 1.64889 4.7808 2.52185 4.7808 3.432C4.78174 4.34217 5.1438 5.21485 5.78741 5.85824C6.43111 6.50174 7.30388 6.86352 8.21412 6.86429L8.21391 6.86446ZM1.55639 9.9366C1.4966 9.93669 1.4428 9.97278 1.41993 10.028C1.39716 10.0833 1.40981 10.1468 1.45217 10.189C1.49444 10.2313 1.55808 10.2438 1.61329 10.221C1.66849 10.198 1.70439 10.1441 1.70439 10.0843C1.70429 10.045 1.68874 10.0075 1.66099 9.9798C1.63325 9.95216 1.59566 9.9366 1.55639 9.9366V9.9366ZM1.55639 10.5521C1.4324 10.5522 1.31346 10.5029 1.22574 10.4152C1.13792 10.3275 1.08862 10.2086 1.08862 10.0846C1.08862 9.9605 1.13783 9.84156 1.22546 9.75384C1.31318 9.66611 1.43212 9.61681 1.55611 9.61672C1.68021 9.61672 1.79915 9.66593 1.88687 9.75365C1.97459 9.84128 2.02389 9.96022 2.02398 10.0843C2.0238 10.2083 1.97459 10.3271 1.88687 10.4149C1.79923 10.5025 1.68039 10.5519 1.5564 10.5521L1.55639 10.5521ZM12.999 8.20652H12.999C13.0008 8.3785 12.9126 8.53895 12.7665 8.62969L8.65929 11.2685C8.35459 11.4663 7.98072 11.5265 7.62934 11.4347L2.69025 10.2706V6.99284H4.75005C4.91754 6.99003 5.0809 7.04439 5.21325 7.14702L6.27787 7.94471H6.27797C6.41996 8.05371 6.59447 8.11192 6.77348 8.10985H9.62848C9.69231 8.10985 9.75351 8.13525 9.7985 8.18062C9.8434 8.22589 9.86851 8.28728 9.86804 8.3511L9.86626 8.52984C9.8657 8.65402 9.8194 8.77361 9.73627 8.86594C9.65313 8.95817 9.53897 9.01665 9.41554 9.03015L6.42426 9.35958C6.34497 9.3697 6.26436 9.35977 6.18995 9.33062L4.85943 8.82817C4.77685 8.79705 4.68463 8.83885 4.65361 8.92152C4.62249 9.00409 4.66429 9.09632 4.74686 9.12734L6.07693 9.62979V9.62988C6.19849 9.67693 6.3296 9.69352 6.45895 9.67815L9.4512 9.34843C9.65261 9.32631 9.83884 9.23099 9.97447 9.08057C10.1101 8.93004 10.1856 8.73501 10.1868 8.53236L10.1876 8.35363V8.31951L12.7081 7.75472V7.75482C12.7795 7.73898 12.8541 7.75641 12.9109 7.80224C12.9677 7.84807 13.0005 7.91734 13 7.99035L12.9989 8.20704L12.999 8.20652ZM2.3705 10.7537H0V6.38084H2.3705V10.7537Z" fill="white"/>
</svg>
