<svg width="50" height="50" viewBox="0 0 50 50" fill="none" xmlns="http://www.w3.org/2000/svg">
<path d="M46.4086 5.49777V46.2593C46.419 46.944 46.2304 47.6171 45.8661 48.1977C45.5023 48.7784 44.9774 49.2422 44.3552 49.5329C43.857 49.7625 43.3154 49.8836 42.7661 49.8888C41.9339 49.8955 41.1257 49.6124 40.4808 49.0881L27.2137 38.4314C26.8705 38.1541 26.4417 38.0028 25.9997 38.0028C25.5577 38.0028 25.1288 38.1542 24.7857 38.4314L11.5186 49.017C10.9797 49.4455 10.3304 49.7148 9.64537 49.7934C8.96025 49.872 8.26672 49.7568 7.64422 49.4618C7.03283 49.1758 6.51586 48.7235 6.15242 48.1564C5.78893 47.5896 5.59403 46.932 5.59085 46.2592V5.49767C5.58607 4.04139 6.16319 2.64305 7.19509 1.61123C8.22694 0.57981 9.62875 0 11.0902 0H40.909C42.3705 0 43.7722 0.57982 44.8041 1.61123C45.836 2.64295 46.4132 4.04128 46.4084 5.49767L46.4086 5.49777Z" fill="#6D6D6D"/>
</svg>
