<svg width="50" height="50" viewBox="0 0 50 50" fill="none" xmlns="http://www.w3.org/2000/svg">
<path d="M47.2653 6.90643H41.0154V11.5939C41.0154 12.0453 40.9265 12.4923 40.7537 12.9093C40.581 13.3264 40.3278 13.7053 40.0086 14.0245C39.6894 14.3437 39.3104 14.5969 38.8934 14.7696C38.4763 14.9424 38.0293 15.0313 37.5779 15.0313C37.1265 15.0313 36.6795 14.9424 36.2625 14.7696C35.8454 14.5969 35.4665 14.3437 35.1473 14.0245C34.8281 13.7053 34.5749 13.3264 34.4021 12.9093C34.2294 12.4923 34.1405 12.0453 34.1405 11.5939V6.90643H15.9376V11.5939C15.9376 12.5055 15.5755 13.3798 14.9308 14.0245C14.2862 14.6691 13.4119 15.0313 12.5002 15.0313C11.5885 15.0313 10.7142 14.6691 10.0696 14.0245C9.42491 13.3798 9.06276 12.5055 9.06276 11.5939V6.90643H2.81286C2.44102 6.9022 2.07212 6.97258 1.72796 7.1134C1.3838 7.25422 1.07137 7.46263 0.80916 7.7263C0.546947 7.98997 0.340271 8.30355 0.201357 8.64848C0.0624426 8.99342 -0.00588969 9.36271 0.000401636 9.73451V44.7027C-0.0058061 45.0679 0.0600009 45.4308 0.194064 45.7706C0.328127 46.1105 0.527819 46.4205 0.781735 46.6832C1.03565 46.9458 1.33882 47.1558 1.67392 47.3012C2.00902 47.4467 2.36948 47.5247 2.73473 47.5308H47.2653C47.6305 47.5247 47.991 47.4467 48.3261 47.3012C48.6612 47.1558 48.9643 46.9458 49.2183 46.6832C49.4722 46.4205 49.6719 46.1105 49.8059 45.7706C49.94 45.4308 50.0058 45.0679 49.9996 44.7027V9.73451C50.0058 9.36926 49.94 9.00637 49.8059 8.66656C49.6719 8.32675 49.4722 8.01668 49.2183 7.75406C48.9643 7.49144 48.6612 7.28141 48.3261 7.13597C47.991 6.99053 47.6305 6.91253 47.2653 6.90643ZM12.5002 38.1559H9.37525V35.031H12.5002V38.1559ZM12.5002 30.3436H9.37525V27.2186H12.5002V30.3436ZM12.5002 22.5312H9.37525V19.4062H12.5002V22.5312ZM21.875 38.1559H18.7501V35.031H21.875V38.1559ZM21.875 30.3436H18.7501V27.2186H21.875V30.3436ZM21.875 22.5312H18.7501V19.4062H21.875V22.5312ZM31.2499 38.1559H28.125V35.031H31.2499V38.1559ZM31.2499 30.3436H28.125V27.2186H31.2499V30.3436ZM31.2499 22.5312H28.125V19.4062H31.2499V22.5312ZM40.6247 38.1559H37.4998V35.031H40.6247V38.1559ZM40.6247 30.3436H37.4998V27.2186H40.6247V30.3436ZM40.6247 22.5312H37.4998V19.4062H40.6247V22.5312Z" fill="#6D6D6D"/>
<path d="M12.5 13.156C12.9144 13.156 13.3118 12.9914 13.6048 12.6984C13.8978 12.4054 14.0624 12.008 14.0624 11.5936V2.21872C14.0624 1.80433 13.8978 1.40691 13.6048 1.11389C13.3118 0.820867 12.9144 0.65625 12.5 0.65625C12.0856 0.65625 11.6882 0.820867 11.3951 1.11389C11.1021 1.40691 10.9375 1.80433 10.9375 2.21872V11.5936C10.9375 12.008 11.1021 12.4054 11.3951 12.6984C11.6882 12.9914 12.0856 13.156 12.5 13.156Z" fill="#6D6D6D"/>
<path d="M37.5 13.156C37.9144 13.156 38.3118 12.9914 38.6048 12.6984C38.8978 12.4054 39.0624 12.008 39.0624 11.5936V2.21872C39.0624 1.80433 38.8978 1.40691 38.6048 1.11389C38.3118 0.820867 37.9144 0.65625 37.5 0.65625C37.0856 0.65625 36.6882 0.820867 36.3951 1.11389C36.1021 1.40691 35.9375 1.80433 35.9375 2.21872V11.5936C35.9375 12.008 36.1021 12.4054 36.3951 12.6984C36.6882 12.9914 37.0856 13.156 37.5 13.156Z" fill="#6D6D6D"/>
</svg>
