<svg width="50" height="50" viewBox="0 0 50 50" fill="none" xmlns="http://www.w3.org/2000/svg">
<g clip-path="url(#clip0_119_372)">
<path d="M50 39.4886C50 40.1278 49.8816 40.9624 49.6449 41.9922C49.4081 43.022 49.1596 43.8329 48.8991 44.4247C48.402 45.6084 46.9579 46.8632 44.5668 48.1889C42.3414 49.3963 40.1397 50 37.9616 50C37.3224 50 36.6951 49.9586 36.0795 49.8757C35.464 49.7929 34.7834 49.6449 34.0376 49.4318C33.2919 49.2188 32.7356 49.0471 32.3686 48.9169C32.0017 48.7867 31.3447 48.544 30.3977 48.1889C29.4508 47.8338 28.8707 47.6207 28.6577 47.5497C26.3376 46.7211 24.2661 45.7386 22.4432 44.6023C19.4366 42.732 16.3116 40.1752 13.0682 36.9318C9.82481 33.6884 7.26799 30.5634 5.39773 27.5568C4.26136 25.7339 3.27888 23.6624 2.45028 21.3423C2.37926 21.1293 2.16619 20.5492 1.81108 19.6023C1.45597 18.6553 1.2133 17.9983 1.0831 17.6314C0.952888 17.2644 0.78125 16.7081 0.568182 15.9624C0.355114 15.2166 0.20715 14.536 0.12429 13.9205C0.0414299 13.3049 0 12.6776 0 12.0384C0 9.86032 0.603693 7.65862 1.81108 5.43324C3.13684 3.04214 4.39157 1.59801 5.57528 1.10085C6.16714 0.840436 6.97798 0.591856 8.00781 0.355114C9.03764 0.118371 9.87216 0 10.5114 0C10.8428 0 11.0914 0.0355114 11.2571 0.106534C11.6832 0.24858 12.3106 1.1482 13.1392 2.8054C13.3996 3.25521 13.7547 3.89441 14.2045 4.72301C14.6544 5.55161 15.0687 6.30327 15.4474 6.97798C15.8262 7.6527 16.1932 8.28598 16.5483 8.87784C16.6193 8.97254 16.8265 9.26847 17.1697 9.76562C17.513 10.2628 17.7675 10.683 17.9332 11.0263C18.099 11.3696 18.1818 11.7069 18.1818 12.0384C18.1818 12.5118 17.8445 13.1037 17.1697 13.8139C16.495 14.5241 15.7611 15.1752 14.968 15.767C14.175 16.3589 13.4411 16.9863 12.7663 17.6491C12.0916 18.312 11.7543 18.8565 11.7543 19.2827C11.7543 19.4957 11.8134 19.7621 11.9318 20.0817C12.0502 20.4013 12.1508 20.6439 12.2337 20.8097C12.3165 20.9754 12.4822 21.2595 12.7308 21.6619C12.9794 22.0644 13.1155 22.2893 13.1392 22.3366C14.9384 25.58 16.9981 28.3617 19.3182 30.6818C21.6383 33.0019 24.42 35.0616 27.6634 36.8608C27.7107 36.8845 27.9356 37.0206 28.3381 37.2692C28.7405 37.5178 29.0246 37.6835 29.1903 37.7663C29.3561 37.8492 29.5987 37.9498 29.9183 38.0682C30.2379 38.1866 30.5043 38.2457 30.7173 38.2457C31.1435 38.2457 31.688 37.9084 32.3509 37.2337C33.0137 36.5589 33.6411 35.825 34.233 35.032C34.8248 34.2389 35.4759 33.505 36.1861 32.8303C36.8963 32.1555 37.4882 31.8182 37.9616 31.8182C38.2931 31.8182 38.6304 31.901 38.9737 32.0668C39.317 32.2325 39.7372 32.487 40.2344 32.8303C40.7315 33.1735 41.0275 33.3807 41.1222 33.4517C41.714 33.8068 42.3473 34.1738 43.022 34.5526C43.6967 34.9313 44.4484 35.3456 45.277 35.7955C46.1056 36.2453 46.7448 36.6004 47.1946 36.8608C48.8518 37.6894 49.7514 38.3168 49.8935 38.7429C49.9645 38.9086 50 39.1572 50 39.4886Z" fill="#6D6D6D"/>
</g>
<defs>
<clipPath id="clip0_119_372">
<rect width="50" height="50" fill="white"/>
</clipPath>
</defs>
</svg>
