<svg width="50" height="50" viewBox="0 0 50 50" fill="none" xmlns="http://www.w3.org/2000/svg">
<path fill-rule="evenodd" clip-rule="evenodd" d="M27.68 11.9146C27.68 10.4839 29.1096 9.29398 30.977 9.07804L30.9766 14.7531C29.1097 14.5343 27.6796 13.3443 27.6796 11.9146H27.68ZM35.5021 18.8921C35.5021 20.3217 34.0717 21.5117 32.2058 21.7294V16.0533C34.0717 16.2717 35.5021 17.4609 35.5021 18.8924V18.8921ZM27.6796 18.8921H27.68C27.68 18.5529 27.4046 18.2775 27.0653 18.2775C26.7258 18.2775 26.4507 18.5529 26.4507 18.8921C26.4507 20.9876 28.4312 22.7207 30.9769 22.9641V24.3083H30.9766C30.9766 24.6478 31.252 24.9229 31.5912 24.9229C31.9308 24.9229 32.2058 24.6478 32.2058 24.3083V22.9641C34.7519 22.7207 36.732 20.9876 36.732 18.8921C36.732 16.7966 34.7523 15.0616 32.2058 14.819V9.07758C34.0717 9.29387 35.5021 10.4834 35.5021 11.9142V11.9145C35.4974 12.0807 35.5598 12.2419 35.6755 12.3612C35.7915 12.4805 35.9509 12.5479 36.1171 12.5479C36.2836 12.5479 36.4426 12.4805 36.5587 12.3612C36.6744 12.2418 36.7371 12.0807 36.732 11.9145C36.732 9.81795 34.7523 8.08515 32.2058 7.8418V6.49539C32.2058 6.15582 31.9308 5.88077 31.5912 5.88077C31.252 5.88077 30.9766 6.15582 30.9766 6.49539V7.8418C28.4309 8.08513 26.4504 9.81795 26.4504 11.9145C26.4504 14.0111 28.4309 15.7439 30.9766 15.9873V21.7294C29.1097 21.5117 27.6796 20.3217 27.6796 18.8921L27.6796 18.8921ZM31.5919 28.6049C35.0926 28.6038 38.4497 27.2123 40.9245 24.7362C43.3992 22.26 44.7893 18.9025 44.7885 15.4017C44.7878 11.9011 43.3967 8.54363 40.9209 6.06822C38.4452 3.59319 35.0876 2.20276 31.5874 2.20313C28.0864 2.20313 24.7289 3.5942 22.2539 6.06961C19.7785 8.54501 18.3877 11.9025 18.3877 15.4031C18.3913 18.9038 19.7839 22.2602 22.2593 24.7348C24.735 27.2098 28.0918 28.6013 31.5928 28.6042L31.5919 28.6049ZM5.98613 40.4208C5.75614 40.4212 5.54923 40.56 5.46127 40.7723C5.37368 40.985 5.42234 41.2294 5.58528 41.3916C5.74786 41.5542 5.99263 41.6025 6.20495 41.5145C6.41727 41.4262 6.55534 41.2189 6.55534 40.9889C6.55498 40.8379 6.49514 40.6937 6.38843 40.587C6.28173 40.4807 6.13717 40.4208 5.98613 40.4208V40.4208ZM5.98613 42.7881C5.50921 42.7884 5.05176 42.5988 4.71438 42.2618C4.3766 41.9244 4.187 41.4669 4.187 40.99C4.187 40.5127 4.37625 40.0553 4.7133 39.7179C5.0507 39.3805 5.50816 39.1909 5.98505 39.1905C6.46233 39.1905 6.91979 39.3798 7.25718 39.7172C7.59458 40.0542 7.7842 40.5117 7.78456 40.9889C7.78384 41.4658 7.59458 41.9229 7.25718 42.2603C6.92013 42.5974 6.46303 42.7873 5.98616 42.7881L5.98613 42.7881ZM49.996 33.7666H49.9963C50.0032 34.4281 49.664 35.0452 49.102 35.3942L33.305 45.5435C32.133 46.3042 30.6951 46.536 29.3436 46.1827L10.3471 41.7055V29.0987H18.2694C18.9136 29.0879 19.5419 29.2969 20.051 29.6917L24.1457 32.7597H24.146C24.6922 33.179 25.3633 33.4028 26.0519 33.3949H37.0326C37.2781 33.3949 37.5135 33.4926 37.6865 33.667C37.8592 33.8411 37.9558 34.0773 37.954 34.3228L37.9472 35.0102C37.945 35.4878 37.7669 35.9478 37.4472 36.3029C37.1274 36.6576 36.6884 36.8825 36.2136 36.9345L24.7087 38.2015C24.4037 38.2404 24.0937 38.2022 23.8075 38.0901L18.6901 36.1576C18.3725 36.0379 18.0178 36.1987 17.8985 36.5167C17.7788 36.8342 17.9396 37.189 18.2572 37.3083L23.3728 39.2408V39.2411C23.8403 39.4221 24.3446 39.4859 24.8421 39.4268L36.3508 38.1586C37.1254 38.0736 37.8417 37.7069 38.3634 37.1284C38.885 36.5494 39.1755 35.7993 39.1799 35.0199L39.1831 34.3325V34.2012L48.8775 32.029V32.0293C49.1518 31.9684 49.4387 32.0355 49.6572 32.2118C49.8756 32.388 50.0018 32.6544 50 32.9352L49.9957 33.7687L49.996 33.7666ZM9.1173 43.5634H0V26.7448H9.1173V43.5634Z" fill="#6D6D6D"/>
</svg>
