<svg width="50" height="50" viewBox="0 0 50 50" fill="none" xmlns="http://www.w3.org/2000/svg">
<g clip-path="url(#clip0_117_185)">
<rect width="50" height="50" fill="white"/>
<rect width="50" height="50" rx="4" fill="#6D6D6D"/>
<path d="M39.7792 16.0554L21.1965 34.9799C20.7565 35.4487 20.1475 35.7138 19.5111 35.7138C18.8745 35.7138 18.2654 35.4487 17.8254 34.9799L10.2198 27.2769C9.61784 26.6611 9.38375 25.7648 9.60586 24.9252C9.82822 24.086 10.4729 23.4311 11.2973 23.2077C12.1216 22.984 13.0007 23.2258 13.6027 23.8416L19.517 29.8566L36.3966 12.6201C36.9986 12.0043 37.8776 11.7626 38.702 11.9862C39.5263 12.2097 40.171 12.8645 40.3934 13.7038C40.6155 14.5433 40.3814 15.4396 39.7794 16.0555L39.7792 16.0554Z" fill="white"/>
</g>
<defs>
<clipPath id="clip0_117_185">
<rect width="50" height="50" fill="white"/>
</clipPath>
</defs>
</svg>
