<svg width="50" height="50" viewBox="0 0 50 50" fill="none" xmlns="http://www.w3.org/2000/svg">
<path fill-rule="evenodd" clip-rule="evenodd" d="M4.43129 23.1417C9.64304 27.8988 9.66069 27.2088 11.1776 19.3051C10.4861 19.3295 9.78965 19.0761 9.25932 18.5057C7.71506 16.8404 8.77394 14.0776 11.1487 14.0776C13.3039 14.0776 14.5483 16.5859 13.2057 18.2658C13.0333 18.4817 12.8351 18.6657 12.6188 18.8171C18.3864 26.84 19.349 25.0926 23.7512 15.2399C23.3239 15.0675 22.9243 14.7984 22.5777 14.4258C20.545 12.235 22.02 8.64844 25.002 8.64844C27.9844 8.64844 29.4593 12.2369 27.4264 14.4258C27.0796 14.798 26.6801 15.0675 26.2529 15.2399C30.6554 25.0923 31.6175 26.8396 37.3853 18.8171C37.1694 18.6657 36.9711 18.4817 36.7983 18.2658C35.4572 16.5862 36.7016 14.0776 38.8553 14.0776C41.2313 14.0776 42.2905 16.8408 40.7447 18.5057C40.2128 19.078 39.518 19.331 38.8264 19.3051C40.3433 27.2088 40.3609 27.897 45.5728 23.1417C45.4858 23.0577 45.4052 22.9693 45.3276 22.8726C43.9865 21.1912 45.2309 18.6844 47.3846 18.6844C49.7606 18.6844 50.8198 21.4476 49.2741 23.111C48.7242 23.7043 47.994 23.9558 47.2785 23.9075L45.0315 35.3652H4.96755L2.72054 23.9075C2.00465 23.9558 1.27598 23.7043 0.72502 23.111C-0.819238 21.4476 0.239635 18.6844 2.61442 18.6844C4.76961 18.6844 6.01401 21.1927 4.67145 22.8726C4.59423 22.9693 4.51365 23.0596 4.42632 23.1417H4.43129ZM4.27499 35.9667H45.7293V41.0154H4.27499V35.9667Z" fill="#6D6D6D"/>
</svg>
