<svg width="50" height="50" viewBox="0 0 50 50" fill="none" xmlns="http://www.w3.org/2000/svg">
<path d="M38.9968 4.77665L40.3265 13.3127L47.9782 17.2711L44.1197 25.0111L48 32.751L40.2829 36.7094L38.9532 45.2455L30.4731 43.8965L24.4346 50L18.3743 43.8081L9.95965 45.2234L8.60807 36.621L1 32.6847L4.88033 24.9447L1.0218 17.2711L8.67347 13.2685L10.0032 4.79876L18.4397 6.21406L24.5 0L30.5385 6.12561L38.9968 4.77665ZM19.0501 13.954C18.1828 13.954 17.3511 14.3035 16.7379 14.9256C16.1247 15.5476 15.7801 16.3914 15.7801 17.2711C15.7801 18.1509 16.1247 18.9946 16.7379 19.6167C17.3511 20.2388 18.1828 20.5882 19.0501 20.5882C19.9173 20.5882 20.7491 20.2388 21.3623 19.6167C21.9755 18.9946 22.32 18.1509 22.32 17.2711C22.32 16.3914 21.9755 15.5476 21.3623 14.9256C20.7491 14.3035 19.9173 13.954 19.0501 13.954ZM29.9499 29.4339C29.0827 29.4339 28.2509 29.7834 27.6377 30.4054C27.0245 31.0275 26.68 31.8712 26.68 32.751C26.68 33.6308 27.0245 34.4745 27.6377 35.0965C28.2509 35.7186 29.0827 36.0681 29.9499 36.0681C30.8172 36.0681 31.6489 35.7186 32.2621 35.0965C32.8753 34.4745 33.2199 33.6308 33.2199 32.751C33.2199 31.8712 32.8753 31.0275 32.2621 30.4054C31.6489 29.7834 30.8172 29.4339 29.9499 29.4339ZM16.6739 36.0681L35.3998 17.0721L32.3261 13.954L13.6002 32.95L16.6739 36.0681Z" fill="#6D6D6D"/>
</svg>
