<svg width="50" height="50" viewBox="0 0 50 50" fill="none" xmlns="http://www.w3.org/2000/svg">
<g clip-path="url(#clip0_117_193)">
<path d="M25 0C11.2 0 0 11.2 0 25C0 38.8 11.2 50 25 50C38.8 50 50 38.8 50 25C50 11.2 38.8 0 25 0ZM18.225 35.725L9.25 26.75C9.01855 26.5185 8.83494 26.2438 8.70968 25.9414C8.58442 25.6389 8.51995 25.3148 8.51995 24.9875C8.51995 24.6602 8.58442 24.3361 8.70968 24.0336C8.83494 23.7312 9.01855 23.4565 9.25 23.225C9.48145 22.9935 9.75623 22.8099 10.0586 22.6847C10.3611 22.5594 10.6852 22.4949 11.0125 22.4949C11.3398 22.4949 11.6639 22.5594 11.9664 22.6847C12.2688 22.8099 12.5435 22.9935 12.775 23.225L20 30.425L37.2 13.225C37.6674 12.7576 38.3014 12.4949 38.9625 12.4949C39.6236 12.4949 40.2576 12.7576 40.725 13.225C41.1924 13.6924 41.455 14.3264 41.455 14.9875C41.455 15.6486 41.1924 16.2826 40.725 16.75L21.75 35.725C21.5187 35.9568 21.244 36.1406 20.9416 36.2661C20.6391 36.3915 20.3149 36.4561 19.9875 36.4561C19.6601 36.4561 19.3359 36.3915 19.0334 36.2661C18.731 36.1406 18.4563 35.9568 18.225 35.725Z" fill="#6D6D6D"/>
</g>
<defs>
<clipPath id="clip0_117_193">
<rect width="50" height="50" fill="white"/>
</clipPath>
</defs>
</svg>
