<svg width="50" height="50" viewBox="0 0 50 50" fill="none" xmlns="http://www.w3.org/2000/svg">
<g clip-path="url(#clip0_117_172)">
<path fill-rule="evenodd" clip-rule="evenodd" d="M22.8632 38.8906C20.2286 40.0178 16.8205 40.7122 13.0953 40.7122C8.08574 40.7122 3.65028 39.4574 0.896438 37.5801C0.575176 37.3608 0.276231 37.1325 0 36.8965V39.5217C0 40.7525 0.884479 41.8323 2.23814 42.7551C4.68586 44.4239 8.64276 45.4739 13.0952 45.4739C17.5474 45.4739 21.5046 44.4241 23.9522 42.7551C24.2758 42.5347 24.5736 42.3051 24.8378 42.0659C24.0582 41.0965 23.3926 40.0312 22.8629 38.8908L22.8632 38.8906Z" fill="#6D6D6D"/>
<path fill-rule="evenodd" clip-rule="evenodd" d="M21.4286 32.294C19.0407 33.0964 16.1764 33.5716 13.0953 33.5716C8.08574 33.5716 3.65028 32.3168 0.896438 30.4394C0.575176 30.2202 0.276231 29.9918 0 29.7559V32.381C0 33.6118 0.884479 34.6917 2.23814 35.6145C4.68586 37.2833 8.64275 38.3333 13.0952 38.3333C16.5202 38.3333 19.6524 37.7119 22.0296 36.6656C21.6382 35.3048 21.4286 33.8666 21.4286 32.3811L21.4286 32.294Z" fill="#6D6D6D"/>
<path fill-rule="evenodd" clip-rule="evenodd" d="M23.7798 24.1799C21.044 25.557 17.2692 26.4275 13.0953 26.4275C8.08574 26.4275 3.65028 25.1727 0.896439 23.2954C0.575177 23.0762 0.276231 22.8478 0 22.6118V25.237C0 26.4678 0.88448 27.5477 2.23814 28.4704C4.68586 30.1393 8.64276 31.1893 13.0952 31.1893C16.3477 31.1893 19.3355 30.6288 21.6641 29.6762C22.0153 27.6885 22.7463 25.8298 23.7798 24.1801L23.7798 24.1799Z" fill="#6D6D6D"/>
<path fill-rule="evenodd" clip-rule="evenodd" d="M26.1906 15.4702C25.9143 15.7062 25.6154 15.9346 25.2941 16.1538C22.5407 18.0311 18.1047 19.2859 13.0953 19.2859C8.08584 19.2859 3.65028 18.0311 0.896438 16.1538C0.575176 15.9346 0.276231 15.7062 0 15.4702V18.0954C0 19.3262 0.884479 20.4061 2.23814 21.3288C4.68586 22.9977 8.64276 24.0477 13.0952 24.0477C17.5474 24.0477 21.5046 22.9978 23.9522 21.3288C25.3058 20.4061 26.1903 19.3263 26.1903 18.0954L26.1906 15.4702Z" fill="#6D6D6D"/>
<path fill-rule="evenodd" clip-rule="evenodd" d="M13.0952 5C17.5474 5 21.5046 6.04989 23.9522 7.71885C25.3058 8.64159 26.1903 9.72137 26.1903 10.9523C26.1903 12.1832 25.3058 13.263 23.9522 14.1857C21.5044 15.8546 17.5471 16.9046 13.0952 16.9046C8.64286 16.9046 4.68607 15.8547 2.23814 14.1857C0.884479 13.263 0 12.1832 0 10.9523C0 9.72137 0.884479 8.64159 2.23814 7.71885C4.68586 6.04999 8.64276 5 13.0952 5Z" fill="#6D6D6D"/>
<path fill-rule="evenodd" clip-rule="evenodd" d="M36.9053 19.2861C44.1326 19.2861 50.0001 25.1538 50.0001 32.3809C50.0001 39.6079 44.1324 45.4756 36.9053 45.4756C29.6783 45.4756 23.8096 39.6079 23.8096 32.3809C23.8096 25.1538 29.6777 19.2861 36.9053 19.2861ZM35.7147 26.4289H34.5241C32.5515 26.4289 30.9528 28.0277 30.9528 30.0003C30.9528 31.9729 32.5515 33.5717 34.5241 33.5717H39.2861C39.9434 33.5717 40.4767 34.105 40.4767 34.7619C40.4767 35.4192 39.9434 35.9525 39.2861 35.9525H34.5241C33.8673 35.9525 33.334 35.4192 33.334 34.7619C33.334 34.105 32.8006 33.5717 32.1434 33.5717C31.4861 33.5717 30.9528 34.105 30.9528 34.7619C30.9528 36.7345 32.5515 38.3333 34.5241 38.3333H35.7147V39.5239C35.7147 40.1811 36.2481 40.7145 36.9053 40.7145C37.5622 40.7145 38.0955 40.1811 38.0955 39.5239V38.3333H39.2861C41.2588 38.3333 42.8575 36.7345 42.8575 34.7619C42.8575 32.7892 41.2588 31.1905 39.2861 31.1905H34.5241C33.8673 31.1905 33.334 30.6572 33.334 30.0003C33.334 29.343 33.8673 28.8097 34.5241 28.8097H39.2861C39.9434 28.8097 40.4767 29.343 40.4767 30.0003C40.4767 30.6572 41.01 31.1905 41.6669 31.1905C42.3242 31.1905 42.8575 30.6572 42.8575 30.0003C42.8575 28.0277 41.2588 26.4289 39.2861 26.4289H38.0955V25.2383C38.0955 24.581 37.5622 24.0477 36.9053 24.0477C36.2481 24.0477 35.7147 24.581 35.7147 25.2383V26.4289Z" fill="#6D6D6D"/>
</g>
<defs>
<clipPath id="clip0_117_172">
<rect width="50" height="50" fill="white"/>
</clipPath>
</defs>
</svg>
