<svg width="17" height="22" viewBox="0 0 17 22" fill="none" xmlns="http://www.w3.org/2000/svg">
<path d="M7.66667 4.66667C8.67 4.66667 9.61111 4.98556 10.3656 5.53L14.34 1.55556H10.7778V0H17V6.22222H15.4444V2.65222L11.47 6.61111C12.0144 7.38889 12.3333 8.32222 12.3333 9.33333C12.3333 10.571 11.8417 11.758 10.9665 12.6332C10.0913 13.5083 8.90434 14 7.66667 14C6.42899 14 5.242 13.5083 4.36684 12.6332C3.49167 11.758 3 10.571 3 9.33333C3 8.09566 3.49167 6.90867 4.36684 6.0335C5.242 5.15833 6.42899 4.66667 7.66667 4.66667ZM7.66667 6.22222C6.84155 6.22222 6.05023 6.55 5.46678 7.13345C4.88333 7.71689 4.55556 8.50822 4.55556 9.33333C4.55556 10.1585 4.88333 10.9498 5.46678 11.5332C6.05023 12.1167 6.84155 12.4444 7.66667 12.4444C8.49178 12.4444 9.28311 12.1167 9.86655 11.5332C10.45 10.9498 10.7778 10.1585 10.7778 9.33333C10.7778 8.50822 10.45 7.71689 9.86655 7.13345C9.28311 6.55 8.49178 6.22222 7.66667 6.22222Z" fill="#93D6F4"/>
<path d="M9 13.5514C9.00039 12.6793 8.75283 11.8254 8.28678 11.0915C7.82074 10.3577 7.15586 9.77468 6.37133 9.41202C5.58681 9.04936 4.7157 8.9223 3.86177 9.04599C3.00784 9.16968 2.20707 9.5389 1.55484 10.1097C0.902604 10.6804 0.426397 11.4287 0.182934 12.2654C-0.0605288 13.102 -0.0609863 13.9918 0.181616 14.8287C0.424218 15.6656 0.899656 16.4143 1.5513 16.9858C2.20295 17.5572 3.00334 17.9273 3.85714 18.0519V18.9672H2.35714C2.18665 18.9672 2.02313 19.0356 1.90257 19.1575C1.78201 19.2794 1.71429 19.4447 1.71429 19.617C1.71429 19.7894 1.78201 19.9547 1.90257 20.0766C2.02313 20.1985 2.18665 20.2669 2.35714 20.2669H3.85714V21.3501C3.85714 21.5225 3.92487 21.6878 4.04543 21.8096C4.16599 21.9315 4.3295 22 4.5 22C4.6705 22 4.83401 21.9315 4.95457 21.8096C5.07513 21.6878 5.14286 21.5225 5.14286 21.3501V20.2669H6.64286C6.81335 20.2669 6.97687 20.1985 7.09742 20.0766C7.21798 19.9547 7.28571 19.7894 7.28571 19.617C7.28571 19.4447 7.21798 19.2794 7.09742 19.1575C6.97687 19.0356 6.81335 18.9672 6.64286 18.9672H5.14286V18.0519C6.2135 17.8957 7.19265 17.3548 7.90101 16.5283C8.60936 15.7017 8.9995 14.6449 9 13.5514ZM1.28571 13.5514C1.28571 12.9087 1.47423 12.2804 1.82742 11.746C2.18061 11.2117 2.68261 10.7952 3.26995 10.5492C3.85728 10.3033 4.50356 10.2389 5.12708 10.3643C5.75059 10.4897 6.32332 10.7992 6.77284 11.2536C7.22237 11.7081 7.5285 12.2871 7.65252 12.9174C7.77655 13.5478 7.71289 14.2011 7.46961 14.7949C7.22633 15.3886 6.81435 15.8961 6.28576 16.2532C5.75717 16.6103 5.13573 16.8008 4.5 16.8008C3.64752 16.8008 2.82995 16.4585 2.22716 15.8491C1.62436 15.2397 1.28571 14.4132 1.28571 13.5514Z" fill="#FA9EB8"/>
</svg>
