<svg width="50" height="50" viewBox="0 0 50 50" fill="none" xmlns="http://www.w3.org/2000/svg">
<g clip-path="url(#clip0_117_264)">
<path d="M40.4176 50H31.0535C30.1942 50 29.4912 49.2603 29.4912 48.3563V37.5801H20.5083V48.3563C20.5083 49.2603 19.8053 50 18.946 50H9.58191C8.72264 50 8.01959 49.2603 8.01959 48.3563V28.1489H1.56526C0.930564 28.1489 0.364238 27.7483 0.12007 27.1421C-0.124044 26.5257 0.0126625 25.8271 0.452066 25.3546L23.8868 0.482839C24.1798 0.174647 24.5801 0 25 0C25.4199 0 25.8202 0.174647 26.1132 0.482839L49.5479 25.3546C49.9873 25.8272 50.124 26.536 49.8799 27.1421C49.6358 27.7585 49.0695 28.1489 48.4347 28.1489H41.9804V48.3563C41.9804 49.2603 41.2774 50 40.4181 50H40.4176Z" fill="#6D6D6D"/>
</g>
<defs>
<clipPath id="clip0_117_264">
<rect width="50" height="50" fill="white"/>
</clipPath>
</defs>
</svg>
