<svg width="50" height="50" viewBox="0 0 50 50" fill="none" xmlns="http://www.w3.org/2000/svg">
<path d="M32.669 16.9792L21.6691 18.5583L21.2762 20.65L23.4406 21.1C24.8483 21.4875 25.1284 22.0667 24.8228 23.6792L21.2762 42.75C20.3487 47.6792 21.7855 50 25.1575 50C27.7765 50 30.8102 48.6167 32.1888 46.7125L32.6108 44.425C31.6541 45.3917 30.2464 45.7792 29.3188 45.7792C27.9984 45.7792 27.5219 44.7167 27.8565 42.8458L32.669 16.9792ZM33 5.5C33 6.95869 32.4941 8.35764 31.5937 9.38909C30.6932 10.4205 29.4719 11 28.1985 11C26.925 11 25.7037 10.4205 24.8033 9.38909C23.9028 8.35764 23.3969 6.95869 23.3969 5.5C23.3969 4.04131 23.9028 2.64236 24.8033 1.61091C25.7037 0.579463 26.925 0 28.1985 0C29.4719 0 30.6932 0.579463 31.5937 1.61091C32.4941 2.64236 33 4.04131 33 5.5Z" fill="#6D6D6D"/>
</svg>
