<svg width="50" height="50" viewBox="0 0 50 50" fill="none" xmlns="http://www.w3.org/2000/svg">
<path fill-rule="evenodd" clip-rule="evenodd" d="M22.9233 0.171874C27.6691 -0.891898 31.1114 3.16978 31.1114 7.18564V42.8144C31.1114 46.8302 27.6691 50.8919 22.9233 49.8281C11.5203 47.273 3 37.129 3 25C3 12.871 11.5203 2.72696 22.9233 0.171874ZM36.9714 15.566C37.4506 15.0889 38.1006 14.8209 38.7782 14.8209C39.4559 14.8209 40.1058 15.0889 40.585 15.566L48.2518 23.2008C48.7309 23.678 49 24.3252 49 25C49 25.6748 48.7309 26.322 48.2518 26.7993L40.585 34.434C40.103 34.8976 39.4575 35.1541 38.7874 35.1483C38.1173 35.1425 37.4764 34.8748 37.0025 34.403C36.5287 33.9311 36.2599 33.2928 36.2541 32.6256C36.2483 31.9583 36.5059 31.3155 36.9714 30.8355L40.2758 27.5449H18.3335C17.6557 27.5449 17.0057 27.2768 16.5264 26.7995C16.0472 26.3223 15.7779 25.675 15.7779 25C15.7779 24.3251 16.0472 23.6777 16.5264 23.2005C17.0057 22.7232 17.6557 22.4551 18.3335 22.4551H40.2758L36.9714 19.1645C36.4923 18.6873 36.2232 18.0401 36.2232 17.3653C36.2232 16.6905 36.4923 16.0433 36.9714 15.566Z" fill="#6D6D6D"/>
</svg>
