<svg width="50" height="50" viewBox="0 0 50 50" fill="none" xmlns="http://www.w3.org/2000/svg">
<g clip-path="url(#clip0_119_352)">
<path d="M10.0263 25.5599H1.23815C0.555757 25.5599 0 26.1206 0 26.8029V45.5117C0 46.1941 0.555435 46.7547 1.23815 46.7547H10.0263C10.7142 46.7547 11.2696 46.1941 11.2696 45.5117V26.8029C11.2696 26.1202 10.7138 25.5596 10.0263 25.5596V25.5599ZM5.63995 43.8616C4.40728 43.8616 3.40712 42.8614 3.40712 41.6343C3.40712 40.4068 4.4069 39.407 5.63995 39.407C6.86743 39.407 7.86211 40.4068 7.86211 41.6343C7.86211 42.8614 6.86752 43.8616 5.63995 43.8616Z" fill="#6D6D6D"/>
<path d="M41.6316 26.942C41.6316 25.6218 40.5613 24.5519 39.2411 24.5519L24.9899 24.5516C28.0132 17.4191 26.5403 13.7242 26.5403 13.7242C25.5788 11.5866 24.4108 11.0577 23.5616 11.0105C22.9405 10.9754 22.4194 11.491 22.4058 12.1129C22.1577 23.3106 12.3276 26.7997 12.3276 26.7997V44.5788L13.0314 45.1261C14.384 46.178 16.0492 46.7493 17.7628 46.7493H37.0706C38.5619 46.7493 39.771 45.5402 39.771 44.0489C39.771 42.5579 38.5619 41.3489 37.0706 41.3489H38.931C40.4223 41.3489 41.6314 40.1398 41.6314 38.6484C41.6314 37.0212 40.3124 35.7026 38.6855 35.7026C40.3127 35.7026 41.6314 34.3836 41.6314 32.7563C41.6314 31.1509 40.3298 29.8492 38.7243 29.8492C40.33 29.8492 41.6314 28.5476 41.6314 26.9421L41.6316 26.942Z" fill="#6D6D6D"/>
<path d="M30.2802 7.32043L29.1848 10.6851C29.0737 11.0394 29.4756 11.3306 29.772 11.1136L32.6396 9.02921L35.5073 11.1136C35.8036 11.3306 36.2055 11.0394 36.0944 10.6851L34.999 7.32043L37.8667 5.23603C38.163 5.01902 38.0095 4.54294 37.6393 4.54294H34.0945L32.9998 1.17786C32.8888 0.828733 32.3913 0.828733 32.275 1.17786L31.1852 4.54256H27.6403C27.2698 4.54256 27.1166 5.01865 27.413 5.23565L30.2802 7.32043Z" fill="#6D6D6D"/>
<path d="M49.6168 15.0227H46.0719L44.9821 11.6525C44.8658 11.3033 44.3683 11.3033 44.2572 11.6525L43.1618 15.0227H39.617C39.2464 15.0227 39.0933 15.4937 39.3893 15.7103L42.2569 17.7947L41.1615 21.165C41.0504 21.5141 41.4523 21.8053 41.7487 21.5883L44.6163 19.509L47.484 21.5883C47.7803 21.8049 48.1822 21.5141 48.0711 21.165L46.9757 17.7947L49.8434 15.7103C50.1405 15.4937 49.9869 15.0227 49.6168 15.0227H49.6168Z" fill="#6D6D6D"/>
<path d="M17.539 10.3363C17.8405 10.553 18.2428 10.2566 18.1261 9.90785L17.0311 6.53758L19.8988 4.45828C20.2003 4.24163 20.0468 3.76518 19.6766 3.76518H16.1317L15.0363 0.400489C14.9201 0.0461912 14.4277 0.0461912 14.3115 0.400489L13.2161 3.76518H9.67122C9.30068 3.76518 9.14752 4.24164 9.44905 4.45828L12.3167 6.53758L11.2213 9.90785C11.105 10.257 11.5069 10.5533 11.8085 10.3363L14.6761 8.25193L17.539 10.3363Z" fill="#6D6D6D"/>
</g>
<defs>
<clipPath id="clip0_119_352">
<rect width="50" height="50" fill="white"/>
</clipPath>
</defs>
</svg>
