<svg width="50" height="50" viewBox="0 0 50 50" fill="none" xmlns="http://www.w3.org/2000/svg">
<path d="M28.0305 48.8765C33.5078 42.5907 46 27.356 46 18.7986C46 8.42023 36.8177 0 25.5 0C14.1823 0 5 8.42023 5 18.7986C5 27.356 17.4922 42.5907 22.9695 48.8765C24.2828 50.3745 26.7172 50.3745 28.0305 48.8765ZM25.5 25.0649C21.731 25.0649 18.6667 22.2549 18.6667 18.7986C18.6667 15.3424 21.731 12.5324 25.5 12.5324C29.269 12.5324 32.3333 15.3424 32.3333 18.7986C32.3333 22.2549 29.269 25.0649 25.5 25.0649Z" fill="#6D6D6D"/>
</svg>
