<svg width="13" height="14" viewBox="0 0 13 14" fill="none" xmlns="http://www.w3.org/2000/svg">
<path fill-rule="evenodd" clip-rule="evenodd" d="M5.63051 0.0481248C6.97169 -0.249731 7.94454 0.887537 7.94454 2.01198V11.988C7.94454 13.1125 6.97169 14.2497 5.63051 13.9519C2.40792 13.2365 0 10.3961 0 7C0 3.60387 2.40792 0.763549 5.63051 0.0481248ZM9.60061 4.35849C9.73605 4.2249 9.91972 4.14985 10.1112 4.14985C10.3027 4.14985 10.4864 4.2249 10.6218 4.35849L12.7885 6.49621C12.9239 6.62984 13 6.81105 13 7C13 7.18895 12.9239 7.37016 12.7885 7.50379L10.6218 9.64151C10.4856 9.77131 10.3032 9.84314 10.1138 9.84151C9.92446 9.83989 9.74332 9.76495 9.60941 9.63283C9.4755 9.50072 9.39955 9.32199 9.3979 9.13516C9.39626 8.94832 9.46905 8.76833 9.60061 8.63393L10.5345 7.71257H4.33338C4.14184 7.71257 3.95814 7.6375 3.82269 7.50387C3.68725 7.37023 3.61115 7.18899 3.61115 7C3.61115 6.81101 3.68725 6.62977 3.82269 6.49613C3.95814 6.3625 4.14184 6.28743 4.33338 6.28743H10.5345L9.60061 5.36607C9.46522 5.23244 9.38915 5.05123 9.38915 4.86228C9.38915 4.67333 9.46522 4.49211 9.60061 4.35849Z" fill="white"/>
</svg>
