<svg width="50" height="50" viewBox="0 0 50 50" fill="none" xmlns="http://www.w3.org/2000/svg">
<g clip-path="url(#clip0_117_202)">
<path d="M16.6667 16.6667C20.25 16.6667 23.6111 17.8056 26.3056 19.75L40.5 5.55556H27.7778V0H50V22.2222H44.4444V9.47222L30.25 23.6111C32.1944 26.3889 33.3333 29.7222 33.3333 33.3333C33.3333 37.7536 31.5774 41.9928 28.4518 45.1184C25.3262 48.2441 21.0869 50 16.6667 50C12.2464 50 8.00716 48.2441 4.88155 45.1184C1.75595 41.9928 0 37.7536 0 33.3333C0 28.9131 1.75595 24.6738 4.88155 21.5482C8.00716 18.4226 12.2464 16.6667 16.6667 16.6667ZM16.6667 22.2222C13.7198 22.2222 10.8937 23.3929 8.80992 25.4766C6.72619 27.5603 5.55556 30.3865 5.55556 33.3333C5.55556 36.2802 6.72619 39.1063 8.80992 41.1901C10.8937 43.2738 13.7198 44.4444 16.6667 44.4444C19.6135 44.4444 22.4397 43.2738 24.5234 41.1901C26.6071 39.1063 27.7778 36.2802 27.7778 33.3333C27.7778 30.3865 26.6071 27.5603 24.5234 25.4766C22.4397 23.3929 19.6135 22.2222 16.6667 22.2222Z" fill="#6D6D6D"/>
</g>
<defs>
<clipPath id="clip0_117_202">
<rect width="50" height="50" fill="white"/>
</clipPath>
</defs>
</svg>
