<svg width="7" height="7" viewBox="0 0 7 7" fill="none" xmlns="http://www.w3.org/2000/svg">
<path d="M4.1538 3.51392L6.83442 0.833304C6.93471 0.747438 6.99457 0.623759 6.99965 0.491829C7.00472 0.359978 6.95461 0.232008 6.8613 0.138703C6.76798 0.0453839 6.64002 -0.0047231 6.50817 0.000351126C6.37624 0.00542536 6.25255 0.0652851 6.1667 0.16558L3.48608 2.84619L0.805464 0.16558C0.683524 0.0611628 0.517024 0.0255639 0.363133 0.0710737C0.209162 0.116663 0.088799 0.237017 0.0432121 0.390994C-0.00229766 0.544885 0.0333016 0.711381 0.137719 0.833324L2.81833 3.51394L0.137719 6.19455C0.0494738 6.28327 0 6.40331 0 6.52842C0 6.65353 0.0494738 6.77356 0.137719 6.86228C0.226439 6.95053 0.346473 7 0.471583 7C0.596693 7 0.716729 6.95053 0.805447 6.86228L3.48606 4.18167L6.16668 6.86228C6.2554 6.95053 6.37543 7 6.50054 7C6.62565 7 6.74569 6.95053 6.83441 6.86228C6.92265 6.77356 6.97213 6.65353 6.97213 6.52842C6.97213 6.40331 6.92265 6.28327 6.83441 6.19455L4.1538 3.51392Z" fill="#CB0000"/>
</svg>
