<svg width="50" height="50" viewBox="0 0 50 50" fill="none" xmlns="http://www.w3.org/2000/svg">
<path d="M25 25C31.9437 25 37.5714 19.4043 37.5714 12.5C37.5714 5.5957 31.9437 0 25 0C18.0562 0 12.4286 5.5957 12.4286 12.5C12.4286 19.4043 18.0562 25 25 25ZM34.4089 28.1836L29.7143 46.875L26.5714 33.5938L29.7143 28.125H20.2857L23.4286 33.5938L20.2857 46.875L15.5911 28.1836C8.58839 28.5156 3 34.209 3 41.25V45.3125C3 47.9004 5.11161 50 7.71429 50H42.2857C44.8884 50 47 47.9004 47 45.3125V41.25C47 34.209 41.4116 28.5156 34.4089 28.1836Z" fill="#6D6D6D"/>
</svg>
