<svg width="14" height="8" viewBox="0 0 14 8" fill="none" xmlns="http://www.w3.org/2000/svg">
<path d="M1.31825 6.40402H0.418787C0.187486 6.40402 0 6.21653 0 5.98524V0.788416C0 0.557115 0.1875 0.369629 0.418787 0.369629H1.31825C1.54956 0.369629 1.73704 0.557128 1.73704 0.788416V5.98524C1.73704 6.21654 1.54954 6.40402 1.31825 6.40402Z" fill="white"/>
<path d="M12.6817 6.3967H13.5812C13.8125 6.3967 14 6.2092 14 5.97791V0.781092C14 0.549791 13.8125 0.362305 13.5812 0.362305H12.6817C12.4504 0.362305 12.2629 0.549804 12.2629 0.781092V5.97791C12.2629 6.20921 12.4504 6.3967 12.6817 6.3967Z" fill="white"/>
<path d="M9.32657 1.08689L8.67892 0.513711C8.14452 -0.107331 7.17113 -0.175379 6.55512 0.364781L4.60417 2.07568C4.27181 2.36701 4.24082 2.89747 4.53889 3.22534C4.83195 3.54767 5.33878 3.57833 5.66944 3.29319L7.3692 1.81094C7.47583 1.71799 7.63587 1.72526 7.73373 1.82739L11.3885 5.64248H11.617L11.6169 1.08675L9.32657 1.08689Z" fill="white"/>
<path d="M10.0657 5.41211L7.35707 2.57589L6.07557 3.74041C5.50795 4.25932 4.62697 4.21914 4.10903 3.65077C3.59225 3.08369 3.63232 2.20517 4.19856 1.68743L5.58957 0.415645C4.80924 0.00807154 3.82099 0.242784 3.31887 1.00313H2.41333V5.8433H3.20766L4.49493 7.15932C4.70722 7.39478 5.05337 7.45377 5.33179 7.30205C5.70176 7.10045 5.79962 6.62065 5.55369 6.29149L6.22539 7.042C6.413 7.25173 6.71373 7.31808 6.9723 7.20685L6.98886 7.1997C7.41653 7.01561 7.53906 6.47021 7.23255 6.123C6.78598 5.61713 6.37529 5.13475 6.37529 5.13475L7.66545 6.58946C7.87678 6.82567 8.22143 6.88861 8.50262 6.74234L8.5195 6.73358C8.94247 6.5136 8.98081 5.92557 8.66009 5.57674C8.04449 4.90729 7.37676 4.13328 7.37676 4.13328C7.37676 4.13328 8.55433 5.39749 9.1696 6.05453C9.36223 6.26019 9.66169 6.326 9.9228 6.22012L9.94054 6.21297C10.2888 5.99598 10.217 5.65291 10.0657 5.41212L10.0657 5.41211Z" fill="white"/>
</svg>
