<svg width="12" height="13" viewBox="0 0 12 13" fill="none" xmlns="http://www.w3.org/2000/svg">
<path d="M6 6.5C7.73594 6.5 9.14286 5.04512 9.14286 3.25C9.14286 1.45488 7.73594 0 6 0C4.26406 0 2.85714 1.45488 2.85714 3.25C2.85714 5.04512 4.26406 6.5 6 6.5ZM8.2 7.3125H7.78996C7.24487 7.57148 6.63839 7.71875 6 7.71875C5.36161 7.71875 4.75759 7.57148 4.21004 7.3125H3.8C1.97812 7.3125 0.5 8.84102 0.5 10.725V11.7812C0.5 12.4541 1.0279 13 1.67857 13H10.3214C10.9721 13 11.5 12.4541 11.5 11.7812V10.725C11.5 8.84102 10.0219 7.3125 8.2 7.3125Z" fill="white"/>
</svg>
