<svg width="31" height="31" viewBox="0 0 31 31" fill="none" xmlns="http://www.w3.org/2000/svg">
<path d="M25.5733 20.4845C25.5733 20.4755 25.5712 20.4671 25.5706 20.4581L25.5601 16.6872C25.2575 16.6277 24.9849 16.4653 24.7887 16.2275C24.5924 15.9897 24.4846 15.6912 24.4836 15.3829C24.4827 15.0744 24.5888 14.7752 24.7837 14.5362C24.9787 14.2971 25.2504 14.133 25.5528 14.0718L25.542 10.2746C25.5415 10.1727 25.5007 10.0751 25.4284 10.0033C25.3562 9.93145 25.2583 9.89121 25.1565 9.89139L5.63227 9.95188L5.63135 9.95188C5.58087 9.95202 5.53091 9.96211 5.48434 9.98156C5.43776 10.001 5.39547 10.0295 5.35988 10.0653C5.3243 10.1011 5.29612 10.1435 5.27696 10.1902C5.25779 10.2369 5.24801 10.2869 5.24818 10.3374L5.24818 10.3377L5.26174 14.1347C5.56399 14.1944 5.83626 14.3568 6.0323 14.5945C6.22834 14.8322 6.33605 15.1304 6.33715 15.4385C6.33824 15.7466 6.23265 16.0455 6.03831 16.2846C5.84396 16.5237 5.57285 16.6881 5.27103 16.7499L5.28443 20.4979C5.28233 20.5142 5.27945 20.5304 5.27965 20.5472C5.27979 20.5977 5.28986 20.6476 5.3093 20.6942C5.32875 20.7407 5.35718 20.783 5.39297 20.8186C5.42876 20.8541 5.47121 20.8823 5.51789 20.9015C5.56457 20.9206 5.61457 20.9304 5.66503 20.9302L5.66503 20.9305L25.1901 20.87C25.2406 20.8699 25.2906 20.8598 25.3372 20.8403C25.3837 20.8209 25.426 20.7924 25.4616 20.7566C25.4972 20.7208 25.5254 20.6784 25.5445 20.6317C25.5637 20.585 25.5735 20.535 25.5733 20.4845ZM23.0315 18.7244L7.81085 18.7714C7.76039 18.7716 7.71039 18.7618 7.66371 18.7427C7.61703 18.7235 7.57458 18.6954 7.53879 18.6598C7.503 18.6242 7.47457 18.5819 7.45512 18.5354C7.43568 18.4888 7.42561 18.4389 7.42547 18.3884L7.40742 12.4831C7.40724 12.4326 7.41701 12.3826 7.43617 12.3359C7.45532 12.2893 7.48349 12.2468 7.51906 12.211C7.55463 12.1752 7.59691 12.1468 7.64347 12.1273C7.69004 12.1079 7.73998 12.0978 7.79044 12.0977L23.0108 12.0506C23.1127 12.0504 23.2105 12.0906 23.2827 12.1624C23.355 12.2342 23.3958 12.3318 23.3962 12.4336L23.4142 18.3393C23.4144 18.3897 23.4047 18.4397 23.3855 18.4863C23.3664 18.533 23.3383 18.5754 23.3027 18.6112C23.2672 18.6469 23.2249 18.6753 23.1784 18.6948C23.1318 18.7142 23.0819 18.7242 23.0315 18.7244Z" fill="white"/>
<path d="M17.0206 17.4779L16.4669 15.9261L17.6912 14.9508C17.7092 14.9363 17.7223 14.9166 17.7286 14.8944C17.735 14.8721 17.7343 14.8485 17.7266 14.8266C17.7189 14.8048 17.7047 14.7859 17.6858 14.7725C17.6669 14.7592 17.6444 14.752 17.6213 14.7519L16.0501 14.7569L15.5099 13.2435C15.5021 13.2219 15.4879 13.2031 15.469 13.1899C15.4502 13.1766 15.4277 13.1696 15.4047 13.1696C15.3817 13.1696 15.3592 13.1768 15.3404 13.1901C15.3216 13.2034 15.3074 13.2222 15.2997 13.2439L14.7687 14.761L13.1977 14.7656C13.1745 14.7657 13.1519 14.773 13.1331 14.7865C13.1142 14.8 13.1 14.819 13.0924 14.8409C13.0849 14.8628 13.0845 14.8865 13.0911 14.9087C13.0976 14.9309 13.1109 14.9504 13.1291 14.9647L14.359 15.9323L13.8148 17.4877C13.8075 17.5094 13.807 17.5328 13.8134 17.5548C13.8197 17.5768 13.8327 17.5963 13.8505 17.6107C13.8683 17.6251 13.89 17.6337 13.9128 17.6353C13.9357 17.637 13.9584 17.6316 13.9781 17.6199L15.4158 16.7515L16.8592 17.6112C16.879 17.6228 16.9019 17.628 16.9248 17.6263C16.9477 17.6246 16.9695 17.616 16.9874 17.6016C17.0049 17.5868 17.0175 17.567 17.0234 17.5449C17.0294 17.5228 17.0284 17.4994 17.0206 17.4779Z" fill="white"/>
</svg>
