<svg width="50" height="50" viewBox="0 0 50 50" fill="none" xmlns="http://www.w3.org/2000/svg">
<path d="M25.0006 32.3342C28.6825 32.3342 31.6672 29.3495 31.6672 25.6676C31.6672 21.9857 28.6825 19.001 25.0006 19.001C21.3187 19.001 18.334 21.9857 18.334 25.6676C18.334 29.3495 21.3187 32.3342 25.0006 32.3342Z" fill="#6D6D6D"/>
<path d="M49.4642 23.8541C46.708 19.5916 43.132 15.9708 39.1237 13.3823C34.6893 10.5156 29.7935 9 24.9665 9C20.5374 9 16.1822 10.2656 12.0218 12.7614C7.77911 15.3062 3.93538 19.0239 0.596865 23.8103C0.219977 24.3513 0.0124096 24.992 0.000539197 25.6512C-0.0113312 26.3104 0.173031 26.9582 0.530199 27.5124C3.28122 31.8175 6.82182 35.4436 10.7676 37.9967C15.2103 40.8748 19.9915 42.3331 24.9665 42.3331C29.8321 42.3331 34.7383 40.83 39.1539 37.9873C43.1601 35.4071 46.7288 31.7728 49.4747 27.4749C49.8195 26.9336 50.0018 26.3047 50 25.6629C49.9981 25.0211 49.8122 24.3933 49.4642 23.8541ZM25.0019 35.6665C23.0241 35.6665 21.0907 35.08 19.4462 33.9812C17.8018 32.8824 16.52 31.3206 15.7632 29.4934C15.0063 27.6661 14.8083 25.6555 15.1941 23.7157C15.58 21.7759 16.5324 19.994 17.9309 18.5955C19.3294 17.197 21.1112 16.2446 23.051 15.8588C24.9908 15.4729 27.0015 15.6709 28.8287 16.4278C30.656 17.1847 32.2177 18.4664 33.3165 20.1109C34.4153 21.7554 35.0018 23.6888 35.0018 25.6665C34.9988 28.3178 33.9443 30.8595 32.0696 32.7342C30.1949 34.6089 27.6531 35.6634 25.0019 35.6665Z" fill="#6D6D6D"/>
</svg>
