<svg width="50" height="50" viewBox="0 0 50 50" fill="none" xmlns="http://www.w3.org/2000/svg">
<g clip-path="url(#clip0_117_223)">
<path fill-rule="evenodd" clip-rule="evenodd" d="M38.3113 32.0416L49.2188 20.8885C49.7396 20.3424 50 19.8383 50 19.3762C50 18.599 49.4391 18.1159 48.3173 17.9269L33.2332 15.627L26.4724 1.29175C26.0917 0.430582 25.601 0 25 0C24.399 0 23.9083 0.430582 23.5276 1.29175L16.7668 15.627L1.68269 17.9269C0.560897 18.1159 0 18.599 0 19.3762C0 19.8173 0.250401 20.3214 0.751202 20.8885L11.6887 32.0416L9.10457 47.7946C9.0645 48.0886 9.04447 48.2987 9.04447 48.4247C9.04447 48.8658 9.14964 49.2386 9.35998 49.5432C9.57031 49.8477 9.88582 50 10.3065 50C10.6671 50 11.0677 49.874 11.5084 49.6219L25 42.1865L38.4916 49.6219C38.9123 49.874 39.3129 50 39.6935 50C40.0942 50 40.3996 49.8477 40.61 49.5432C40.8203 49.2386 40.9255 48.8658 40.9255 48.4247C40.9255 48.1516 40.9155 47.9416 40.8954 47.7946L38.3113 32.0416ZM36.1839 43.7829L34.0364 30.6918L43.3098 21.2096L30.5241 19.2601L25 7.54713L19.4759 19.2601L6.6714 21.2125L15.9641 30.6884L13.8161 43.7829L25 37.6193L36.1839 43.7829ZM2.29504 21.8822C2.29464 21.882 2.30336 21.8795 2.32239 21.8758C2.30495 21.8807 2.29544 21.8825 2.29504 21.8822ZM47.705 21.8822C47.7046 21.8826 47.6951 21.8807 47.6777 21.8758C47.6966 21.8795 47.7053 21.8819 47.705 21.8822Z" fill="#6D6D6D"/>
</g>
<defs>
<clipPath id="clip0_117_223">
<rect width="50" height="50" fill="white"/>
</clipPath>
</defs>
</svg>
