<svg width="50" height="50" viewBox="0 0 50 50" fill="none" xmlns="http://www.w3.org/2000/svg">
<g clip-path="url(#clip0_117_176)">
<path d="M50 19.3762C50 19.8383 49.7396 20.3424 49.2188 20.8885L38.3113 32.0416L40.8954 47.7946C40.9155 47.9416 40.9255 48.1516 40.9255 48.4247C40.9255 48.8658 40.8203 49.2386 40.61 49.5432C40.3996 49.8477 40.0942 50 39.6935 50C39.3129 50 38.9123 49.874 38.4916 49.6219L25 42.1865L11.5084 49.6219C11.0677 49.874 10.6671 50 10.3065 50C9.88582 50 9.57031 49.8477 9.35998 49.5432C9.14964 49.2386 9.04447 48.8658 9.04447 48.4247C9.04447 48.2987 9.0645 48.0886 9.10457 47.7946L11.6887 32.0416L0.751202 20.8885C0.250401 20.3214 0 19.8173 0 19.3762C0 18.599 0.560897 18.1159 1.68269 17.9269L16.7668 15.627L23.5276 1.29175C23.9083 0.430582 24.399 0 25 0C25.601 0 26.0917 0.430582 26.4724 1.29175L33.2332 15.627L48.3173 17.9269C49.4391 18.1159 50 18.599 50 19.3762Z" fill="#6D6D6D"/>
</g>
<defs>
<clipPath id="clip0_117_176">
<rect width="50" height="50" fill="white"/>
</clipPath>
</defs>
</svg>
