<svg width="50" height="50" viewBox="0 0 50 50" fill="none" xmlns="http://www.w3.org/2000/svg">
<g clip-path="url(#clip0_117_196)">
<path d="M25 50C38.8071 50 50 38.8071 50 25C50 11.1929 38.8071 0 25 0C11.1929 0 0 11.1929 0 25C0 38.8071 11.1929 50 25 50ZM21.4286 12.5C21.4286 12.0264 21.6167 11.5722 21.9516 11.2373C22.2865 10.9024 22.7407 10.7143 23.2143 10.7143C23.6879 10.7143 24.1421 10.9024 24.477 11.2373C24.8119 11.5722 25 12.0264 25 12.5V25H32.1429C32.6165 25 33.0707 25.1881 33.4055 25.523C33.7404 25.8579 33.9286 26.3121 33.9286 26.7857C33.9286 27.2593 33.7404 27.7135 33.4055 28.0484C33.0707 28.3833 32.6165 28.5714 32.1429 28.5714H23.2143C22.7407 28.5714 22.2865 28.3833 21.9516 28.0484C21.6167 27.7135 21.4286 27.2593 21.4286 26.7857V12.5Z" fill="#6D6D6D"/>
</g>
<defs>
<clipPath id="clip0_117_196">
<rect width="50" height="50" fill="white"/>
</clipPath>
</defs>
</svg>
