<svg width="50" height="50" viewBox="0 0 50 50" fill="none" xmlns="http://www.w3.org/2000/svg">
<path d="M14.0309 21.7744L12.418 26.7744H15.6438L14.0309 21.7744Z" fill="#6D6D6D"/>
<path d="M45.1613 0H19.3548V8.06452H25.8064V11.2903H4.83871C2.09677 11.2903 0 13.3871 0 16.129V33.871C0 36.6129 2.09677 38.7097 4.83871 38.7097H6.45161V46.9355L16.6129 38.7097H27.4194V27.4194H45.1613C47.9032 27.4194 50 25.3226 50 22.5806V4.83871C50 2.09677 47.9032 0 45.1613 0ZM17.4194 32.0968L16.6129 29.5161H11.6129L10.6452 32.0968H6.77419L12.0968 17.7419H15.9677L21.2903 32.0968H17.4194ZM41.9355 19.3548V22.5806C39.8387 22.5806 37.5806 21.9355 35.6452 20.9677C33.7097 21.9355 31.4516 22.4194 29.1936 22.5806L29.0323 19.3548C30.1613 19.3548 31.2903 19.1936 32.4194 18.871C30.9677 17.4194 30 15.6452 29.5161 13.7097H32.9032C33.3871 15.1613 34.3548 16.2903 35.4839 17.2581C37.2581 15.8065 38.3871 13.7097 38.5484 11.2903H28.871V8.06452H33.7097V4.83871H36.9355V8.06452H42.2581L42.4194 9.67742C42.5806 13.0645 41.2903 16.4516 38.871 18.871C40 19.1936 40.9677 19.3548 41.9355 19.3548Z" fill="#6D6D6D"/>
</svg>
