<svg width="50" height="50" viewBox="0 0 50 50" fill="none" xmlns="http://www.w3.org/2000/svg">
<path fill-rule="evenodd" clip-rule="evenodd" d="M47.7197 39.5758H36.8822V38.8662C36.8822 38.5574 36.9562 38.2625 36.8849 37.9761C36.5412 34.1736 35.1437 30.6339 32.4938 27.845C33.3103 27.8539 34.1206 27.831 34.8531 27.831C37.2976 27.831 39.486 26.1817 41.0392 24.3754C46.8076 25.7783 49.5171 29.3327 49.9221 33.8134C49.9682 33.9978 50 34.1877 50 34.3865V37.2442C50 38.5312 48.9789 39.576 47.7194 39.576L47.7197 39.5758ZM34.8832 25.1947C31.071 25.1947 27.6081 20.2211 27.6081 15.8835C27.6081 11.5463 31.0714 8.03066 34.8832 8.03066C38.6953 8.03066 42.1056 11.5464 42.1056 15.8835C42.1056 20.2207 38.6953 25.1947 34.8832 25.1947ZM17.0983 27.7698C12.7866 27.7698 9.1682 21.7871 9.1682 16.8818C9.1682 11.976 12.7866 8 17.0983 8C21.4099 8 25.0283 11.976 25.0283 16.8818C25.0279 21.7871 21.4095 27.7698 17.0983 27.7698ZM9.97704 26.3634C11.7388 28.4728 14.2488 30.3921 17.0642 30.3921C19.8288 30.3921 22.3036 28.5265 24.0603 26.4839C30.5844 28.07 33.649 32.0907 34.1071 37.1576C34.1586 37.3661 34.1951 37.5808 34.1951 37.8055V39.5502C34.1951 41.007 33.0406 42.1873 31.6161 42.1873L2.579 42.187C1.15488 42.187 0 41.0066 0 39.5498V37.8052C0 37.7552 0.0116263 37.7079 0.0143386 37.6587H0.0112384C0.0162762 37.5664 0.0344908 37.4816 0.0410781 37.3897C0.0472786 37.349 0.0465038 37.3064 0.0542541 37.2665C0.453406 32.0154 2.9658 27.8704 9.97799 26.3626L9.97704 26.3634Z" fill="#6D6D6D"/>
</svg>
