<svg width="50" height="50" viewBox="0 0 50 50" fill="none" xmlns="http://www.w3.org/2000/svg">
<g clip-path="url(#clip0_119_354)">
<g clip-path="url(#clip1_119_354)">
<path d="M18.3333 0.00138043C16.7787 -0.0357966 15.2323 0.238307 13.7851 0.807568C12.3379 1.37683 11.0192 2.22975 9.90646 3.31616C8.79376 4.40257 7.90956 5.70053 7.30586 7.13369C6.70217 8.56685 6.39117 10.1063 6.39117 11.6614C6.39117 13.2165 6.70217 14.7559 7.30586 16.1891C7.90956 17.6222 8.79376 18.9202 9.90646 20.0066C11.0192 21.093 12.3379 21.9459 13.7851 22.5152C15.2323 23.0845 16.7787 23.3586 18.3333 23.3214C19.888 23.3586 21.4344 23.0845 22.8816 22.5152C24.3288 21.9459 25.6475 21.093 26.7602 20.0066C27.8729 18.9202 28.7571 17.6222 29.3608 16.1891C29.9645 14.7559 30.2755 13.2165 30.2755 11.6614C30.2755 10.1063 29.9645 8.56685 29.3608 7.13369C28.7571 5.70053 27.8729 4.40257 26.7602 3.31616C25.6475 2.22975 24.3288 1.37683 22.8816 0.807568C21.4344 0.238307 19.888 -0.0357966 18.3333 0.00138043ZM11.6667 29.9814C8.57247 29.9814 5.60501 31.2105 3.41709 33.3985C1.22916 35.5864 0 38.5539 0 41.648L0 49.9714H36.6667V41.648C36.6667 38.5539 35.4375 35.5864 33.2496 33.3985C31.0617 31.2105 28.0942 29.9814 25 29.9814H11.6667ZM41.6667 33.3347H40V50.0014H50V41.668C50 39.4579 49.122 37.3383 47.5592 35.7755C45.9964 34.2127 43.8768 33.3347 41.6667 33.3347Z" fill="#6D6D6D"/>
<path d="M38.3333 13.334C36.1232 13.334 34.0036 14.212 32.4408 15.7748C30.878 17.3376 30 19.4572 30 21.6673C30 23.8775 30.878 25.9971 32.4408 27.5599C34.0036 29.1227 36.1232 30.0007 38.3333 30.0007C40.5435 30.0007 42.6631 29.1227 44.2259 27.5599C45.7887 25.9971 46.6667 23.8775 46.6667 21.6673C46.6667 19.4572 45.7887 17.3376 44.2259 15.7748C42.6631 14.212 40.5435 13.334 38.3333 13.334Z" fill="#6D6D6D"/>
</g>
</g>
<defs>
<clipPath id="clip0_119_354">
<rect width="50" height="50" fill="white"/>
</clipPath>
<clipPath id="clip1_119_354">
<rect width="50" height="50" fill="white"/>
</clipPath>
</defs>
</svg>
