<svg width="50" height="50" viewBox="0 0 50 50" fill="none" xmlns="http://www.w3.org/2000/svg">
<path d="M45.7169 30.1488C46.9809 30.1488 48 31.1784 48 32.4543V42.6457C48 46.7025 44.7818 50 40.8306 50H9.16937C5.21825 50 2 46.7025 2 42.6457V32.4543C2 31.1784 3.01953 30.1488 4.28346 30.1488C5.54738 30.1488 6.56652 31.1784 6.56652 32.4543V42.6457C6.56652 44.1309 7.76012 45.3833 9.16937 45.3833H40.8306C42.2403 45.3833 43.4335 44.1309 43.4335 42.6457V32.4543C43.4335 31.1784 44.453 30.1488 45.7169 30.1488ZM25.6565 0.0969157L25.6903 0.108294C25.7019 0.111825 25.7136 0.115749 25.7253 0.119673C25.749 0.127128 25.7727 0.135761 25.7967 0.144785C25.8158 0.151847 25.8348 0.159302 25.8535 0.16715C25.8682 0.173036 25.883 0.179314 25.8978 0.185592C25.9277 0.19854 25.958 0.211881 25.9875 0.226398C25.9922 0.229145 25.9968 0.231499 26.0015 0.233461C26.2801 0.370009 26.5268 0.561874 26.7273 0.795344L39.7823 13.9841C40.6748 14.8858 40.6748 16.3469 39.7823 17.2439C39.3405 17.6944 38.7581 17.9223 38.1707 17.9223C37.5836 17.9223 37.0007 17.6944 36.5543 17.2439L27.2845 7.87839L27.2849 37.6068C27.2849 38.8832 26.2607 39.9128 25.0014 39.9128C23.7379 39.9128 22.7184 38.8832 22.7184 37.6068L22.718 7.86935L13.4392 17.2439C12.9928 17.6944 12.4104 17.9223 11.8276 17.9223C11.2405 17.9223 10.658 17.6944 10.2116 17.2439C9.31877 16.3469 9.31877 14.8857 10.2116 13.9841L23.2915 0.770232C23.3203 0.738058 23.3498 0.706275 23.3809 0.67567C23.8118 0.24014 24.3709 0.0153082 24.9343 0H25.0598C25.261 0.00549317 25.4615 0.0376679 25.6562 0.0965241L25.6565 0.0969157Z" fill="#6D6D6D"/>
</svg>
