<svg width="13" height="14" viewBox="0 0 13 14" fill="none" xmlns="http://www.w3.org/2000/svg">
<path d="M12.3548 8.44166C12.712 8.44166 13 8.72994 13 9.08722V11.9408C13 13.0767 12.0905 14 10.9739 14H2.02613C0.909505 14 0 13.0767 0 11.9408V9.08722C0 8.72994 0.288129 8.44166 0.645325 8.44166C1.00252 8.44166 1.29054 8.72994 1.29054 9.08722V11.9408C1.29054 12.3566 1.62786 12.7073 2.02613 12.7073H10.9739C11.3723 12.7073 11.7095 12.3566 11.7095 11.9408V9.08722C11.7095 8.72994 11.9976 8.44166 12.3548 8.44166ZM6.68553 0.0271364L6.69508 0.0303224C6.69837 0.0313111 6.70167 0.0324098 6.70496 0.0335084C6.71166 0.0355958 6.71836 0.038013 6.72517 0.0405397C6.73055 0.0425173 6.73593 0.0446047 6.7412 0.0468021C6.74537 0.0484501 6.74954 0.0502078 6.75372 0.0519656C6.76217 0.0555913 6.77074 0.0593266 6.77908 0.0633915C6.7804 0.0641606 6.78172 0.0648198 6.78303 0.0653691C6.86176 0.103603 6.93149 0.157325 6.98815 0.222696L10.6776 3.91555C10.9298 4.16802 10.9298 4.57714 10.6776 4.8283C10.5528 4.95442 10.3882 5.01825 10.2221 5.01825C10.0562 5.01825 9.89151 4.95442 9.76535 4.8283L7.14562 2.20595L7.14573 10.5299C7.14573 10.8873 6.85628 11.1756 6.50041 11.1756C6.14333 11.1756 5.8552 10.8873 5.8552 10.5299L5.85509 2.20342L3.23283 4.8283C3.10666 4.95442 2.94206 5.01825 2.77736 5.01825C2.61144 5.01825 2.44684 4.95442 2.32068 4.8283C2.06835 4.57715 2.06835 4.168 2.32068 3.91555L6.01717 0.215665C6.0253 0.206656 6.03364 0.197757 6.04243 0.189188C6.1642 0.0672391 6.32221 0.00428629 6.48142 0H6.51689C6.57377 0.00153809 6.63043 0.010547 6.68544 0.0270267L6.68553 0.0271364Z" fill="white"/>
</svg>
