<svg width="50" height="50" viewBox="0 0 50 50" fill="none" xmlns="http://www.w3.org/2000/svg">
<path d="M42.4616 17.5052C42.4631 14.151 41.5109 10.867 39.7184 8.04441C37.9259 5.22181 35.3687 2.97955 32.3513 1.58469C29.3339 0.18983 25.9835 -0.298839 22.6992 0.176885C19.4148 0.652609 16.3349 2.07267 13.8263 4.26795C11.3177 6.46322 9.48618 9.34118 8.54978 12.559C7.61339 15.7769 7.61163 19.1991 8.54471 22.4179C9.4778 25.6368 11.3064 28.5166 13.8127 30.7146C16.3191 32.9125 19.3975 34.3358 22.6814 34.8149V38.3352H16.9121C16.2564 38.3352 15.6275 38.5986 15.1638 39.0673C14.7001 39.5361 14.4396 40.1719 14.4396 40.8348C14.4396 41.4977 14.7001 42.1335 15.1638 42.6023C15.6275 43.0711 16.2564 43.3344 16.9121 43.3344H22.6814V47.5004C22.6814 48.1633 22.9419 48.7991 23.4055 49.2679C23.8692 49.7366 24.4981 50 25.1539 50C25.8096 50 26.4385 49.7366 26.9022 49.2679C27.3659 48.7991 27.6264 48.1633 27.6264 47.5004V43.3344H33.3956C34.0514 43.3344 34.6803 43.0711 35.144 42.6023C35.6077 42.1335 35.8682 41.4977 35.8682 40.8348C35.8682 40.1719 35.6077 39.5361 35.144 39.0673C34.6803 38.5986 34.0514 38.3352 33.3956 38.3352H27.6264V34.8149C31.7443 34.2141 35.5102 32.1337 38.2347 28.9548C40.9591 25.776 42.4597 21.7113 42.4616 17.5052ZM12.7912 17.5052C12.7912 15.0333 13.5163 12.617 14.8747 10.5617C16.2331 8.50641 18.1639 6.90451 20.4229 5.95857C22.6819 5.01262 25.1676 4.76512 27.5657 5.24736C29.9638 5.7296 32.1666 6.91992 33.8956 8.66779C35.6245 10.4157 36.802 12.6426 37.279 15.067C37.756 17.4913 37.5112 20.0043 36.5755 22.288C35.6398 24.5717 34.0552 26.5236 32.0222 27.8969C29.9892 29.2702 27.599 30.0032 25.1539 30.0032C21.8751 30.0032 18.7306 28.6865 16.4122 26.3426C14.0937 23.9988 12.7912 20.8199 12.7912 17.5052Z" fill="#6D6D6D"/>
</svg>
