<svg width="50" height="50" viewBox="0 0 50 50" fill="none" xmlns="http://www.w3.org/2000/svg">
<path d="M25.1538 25C31.8305 25 37.2418 19.4043 37.2418 12.5C37.2418 5.5957 31.8305 0 25.1538 0C18.4772 0 13.0659 5.5957 13.0659 12.5C13.0659 19.4043 18.4772 25 25.1538 25ZM33.6154 28.125H32.0383C29.9418 29.1211 27.6092 29.6875 25.1538 29.6875C22.6985 29.6875 20.3753 29.1211 18.2694 28.125H16.6923C9.6851 28.125 4 34.0039 4 41.25V45.3125C4 47.9004 6.03039 50 8.53297 50H41.7747C44.2773 50 46.3077 47.9004 46.3077 45.3125V41.25C46.3077 34.0039 40.6226 28.125 33.6154 28.125Z" fill="#6D6D6D"/>
</svg>
