<svg width="11" height="8" viewBox="0 0 11 8" fill="none" xmlns="http://www.w3.org/2000/svg">
<path d="M10.7524 1.39477L4.14844 7.75339C3.99205 7.91093 3.77562 8 3.54946 8C3.32322 8 3.10677 7.91094 2.95039 7.75339L0.247489 5.16521C0.0335493 4.95828 -0.0496414 4.65711 0.0292924 4.37504C0.108316 4.09306 0.337438 3.87301 0.630399 3.79795C0.92336 3.72279 1.23577 3.80401 1.4497 4.01094L3.55155 6.03198L9.5503 0.240522C9.76424 0.0335949 10.0766 -0.0476247 10.3696 0.027533C10.6626 0.102602 10.8917 0.32264 10.9707 0.604624C11.0496 0.8867 10.9665 1.18788 10.7525 1.3948L10.7524 1.39477Z" fill="#19B744"/>
</svg>
